<svg version="1.1" viewBox="0.0 0.0 600.0 371.0" fill="none" stroke="none" stroke-linecap="square" stroke-miterlimit="10" width="600" height="371" xmlns:xlink="http://www.w3.org/1999/xlink" xmlns="http://www.w3.org/2000/svg"><path fill="#ffffff" d="M0 0L600.0 0L600.0 371.0L0 371.0L0 0Z" fill-rule="nonzero"/><path stroke="#333333" stroke-width="1.0" stroke-linecap="butt" d="M77.5 332.5L581.5 332.5" fill-rule="nonzero"/><path stroke="#cccccc" stroke-width="1.0" stroke-linecap="butt" d="M77.5 271.5L581.5 271.5" fill-rule="nonzero"/><path stroke="#cccccc" stroke-width="1.0" stroke-linecap="butt" d="M77.5 210.5L581.5 210.5" fill-rule="nonzero"/><path stroke="#cccccc" stroke-width="1.0" stroke-linecap="butt" d="M77.5 149.5L581.5 149.5" fill-rule="nonzero"/><path stroke="#cccccc" stroke-width="1.0" stroke-linecap="butt" d="M77.5 88.5L581.5 88.5" fill-rule="nonzero"/><clipPath id="id_0"><path d="M77.55 88.28333L581.45 88.28333L581.45 332.45L77.55 332.45L77.55 88.28333Z" clip-rule="nonzero"/></clipPath><path stroke="#000000" stroke-width="2.0" stroke-linecap="butt" stroke-opacity="0.0" clip-path="url(#id_0)" d="M178.0 332.0L131.0 332.0L131.0 141.0C131.0 139.89543 131.89543 139.0 133.0 139.0L176.0 139.0C177.10457 139.0 178.0 139.89543 178.0 141.0Z" fill-rule="nonzero"/><path fill="#4285f4" clip-path="url(#id_0)" d="M178.0 332.0L131.0 332.0L131.0 141.0C131.0 139.89543 131.89543 139.0 133.0 139.0L176.0 139.0C177.10457 139.0 178.0 139.89543 178.0 141.0Z" fill-rule="nonzero"/><path stroke="#000000" stroke-width="2.0" stroke-linecap="butt" stroke-opacity="0.0" clip-path="url(#id_0)" d="M329.0 332.0L282.0 332.0L282.0 163.0C282.0 161.89543 282.89542 161.0 284.0 161.0L327.0 161.0C328.10458 161.0 329.0 161.89543 329.0 163.0Z" fill-rule="nonzero"/><path fill="#4285f4" clip-path="url(#id_0)" d="M329.0 332.0L282.0 332.0L282.0 163.0C282.0 161.89543 282.89542 161.0 284.0 161.0L327.0 161.0C328.10458 161.0 329.0 161.89543 329.0 163.0Z" fill-rule="nonzero"/><path stroke="#000000" stroke-width="2.0" stroke-linecap="butt" stroke-opacity="0.0" clip-path="url(#id_0)" d="M479.0 332.0L432.0 332.0L432.0 119.0C432.0 117.89543 432.89542 117.0 434.0 117.0L477.0 117.0C478.10458 117.0 479.0 117.89543 479.0 119.0Z" fill-rule="nonzero"/><path fill="#4285f4" clip-path="url(#id_0)" d="M479.0 332.0L432.0 332.0L432.0 119.0C432.0 117.89543 432.89542 117.0 434.0 117.0L477.0 117.0C478.10458 117.0 479.0 117.89543 479.0 119.0Z" fill-rule="nonzero"/><path stroke="#000000" stroke-width="2.0" stroke-linecap="butt" stroke-opacity="0.0" clip-path="url(#id_0)" d="M227.0 332.0L180.0 332.0L180.0 194.0C180.0 192.89543 180.89543 192.0 182.0 192.0L225.0 192.0C226.10457 192.0 227.0 192.89543 227.0 194.0Z" fill-rule="nonzero"/><path fill="#ea4335" clip-path="url(#id_0)" d="M227.0 332.0L180.0 332.0L180.0 194.0C180.0 192.89543 180.89543 192.0 182.0 192.0L225.0 192.0C226.10457 192.0 227.0 192.89543 227.0 194.0Z" fill-rule="nonzero"/><path stroke="#000000" stroke-width="2.0" stroke-linecap="butt" stroke-opacity="0.0" clip-path="url(#id_0)" d="M378.0 332.0L331.0 332.0L331.0 201.0C331.0 199.89543 331.89542 199.0 333.0 199.0L376.0 199.0C377.10458 199.0 378.0 199.89543 378.0 201.0Z" fill-rule="nonzero"/><path fill="#ea4335" clip-path="url(#id_0)" d="M378.0 332.0L331.0 332.0L331.0 201.0C331.0 199.89543 331.89542 199.0 333.0 199.0L376.0 199.0C377.10458 199.0 378.0 199.89543 378.0 201.0Z" fill-rule="nonzero"/><path stroke="#000000" stroke-width="2.0" stroke-linecap="butt" stroke-opacity="0.0" clip-path="url(#id_0)" d="M528.0 332.0L481.0 332.0L481.0 187.0C481.0 185.89543 481.89542 185.0 483.0 185.0L526.0 185.0C527.10455 185.0 528.0 185.89543 528.0 187.0Z" fill-rule="nonzero"/><path fill="#ea4335" clip-path="url(#id_0)" d="M528.0 332.0L481.0 332.0L481.0 187.0C481.0 185.89543 481.89542 185.0 483.0 185.0L526.0 185.0C527.10455 185.0 528.0 185.89543 528.0 187.0Z" fill-rule="nonzero"/><path fill="#000000" d="M29.550013 268.92917L20.956263 268.92917L20.956263 265.11667Q20.956263 263.96042 21.190638 263.36667Q21.425013 262.77292 22.018763 262.41354Q22.596888 262.05417 23.300013 262.05417Q24.221888 262.05417 24.846888 262.64792Q25.471888 263.24167 25.643763 264.47604Q25.862513 264.02292 26.065638 263.78854Q26.518763 263.28854 27.206263 262.85104L29.550013 261.35104L29.550013 262.78854L27.768763 263.91354Q26.987513 264.41354 26.581263 264.74167Q26.175013 265.05417 26.018763 265.3198Q25.846888 265.5698 25.768763 265.83542Q25.737513 266.02292 25.737513 266.46042L25.737513 267.78854L29.550013 267.78854L29.550013 268.92917ZM24.753138 267.78854L24.753138 265.33542Q24.753138 264.5698 24.596888 264.1323Q24.425013 263.67917 24.081263 263.46042Q23.721888 263.22604 23.300013 263.22604Q22.690638 263.22604 22.300013 263.67917Q21.909388 264.11667 21.909388 265.0698L21.909388 267.78854L24.753138 267.78854ZM29.550013 255.99167L28.628138 255.99167Q29.690638 256.72604 29.690638 257.97604Q29.690638 258.52292 29.487513 259.0073Q29.268763 259.47604 28.956263 259.71042Q28.628138 259.9448 28.159388 260.03854Q27.862513 260.10104 27.175013 260.10104L23.331263 260.10104L23.331263 259.03854L26.784388 259.03854Q27.596888 259.03854 27.893763 258.97604Q28.300013 258.8823 28.550013 258.5698Q28.784388 258.24167 28.784388 257.7573Q28.784388 257.28854 28.550013 256.8823Q28.300013 256.46042 27.878138 256.28854Q27.456263 256.10104 26.659388 256.10104L23.331263 256.10104L23.331263 255.05417L29.550013 255.05417L29.550013 255.99167ZM29.550013 253.0698L23.331263 253.0698L23.331263 252.1323L24.206263 252.1323Q23.190638 251.4448 23.190638 250.14792Q23.190638 249.58542 23.393763 249.11667Q23.596888 248.6323 23.925013 248.39792Q24.253138 248.16354 24.690638 248.0698Q24.987513 248.02292 25.721888 248.02292L29.550013 248.02292L29.550013 249.0698L25.768763 249.0698Q25.112513 249.0698 24.800013 249.1948Q24.487513 249.3198 24.300013 249.6323Q24.096888 249.9448 24.096888 250.36667Q24.096888 251.03854 24.534388 251.53854Q24.956263 252.02292 26.143763 252.02292L29.550013 252.02292L29.550013 253.0698ZM28.612513 243.77292L29.534388 243.61667Q29.628138 244.0698 29.628138 244.41354Q29.628138 244.99167 29.456263 245.30417Q29.268763 245.61667 28.971888 245.7573Q28.675013 245.8823 27.721888 245.8823L24.143763 245.8823L24.143763 246.64792L23.331263 246.64792L23.331263 245.8823L21.784388 245.8823L21.159388 244.83542L23.331263 244.83542L23.331263 243.77292L24.143763 243.77292L24.143763 244.83542L27.784388 244.83542Q28.237513 244.83542 28.362513 244.78854Q28.487513 244.72604 28.565638 244.60104Q28.643763 244.47604 28.643763 244.24167Q28.643763 244.05417 28.612513 243.77292ZM22.175013 243.0698L20.956263 243.0698L20.956263 242.0073L22.175013 242.0073L22.175013 243.0698ZM29.550013 243.0698L23.331263 243.0698L23.331263 242.0073L29.550013 242.0073L29.550013 243.0698ZM29.550013 240.0698L23.331263 240.0698L23.331263 239.1323L24.206263 239.1323Q23.737513 238.83542 23.471888 238.35104Q23.190638 237.86667 23.190638 237.24167Q23.190638 236.55417 23.471888 236.11667Q23.753138 235.66354 24.268763 235.49167Q23.190638 234.74167 23.190638 233.5698Q23.190638 232.6323 23.706263 232.14792Q24.206263 231.64792 25.284388 231.64792L29.550013 231.64792L29.550013 232.6948L25.628138 232.6948Q25.003138 232.6948 24.721888 232.80417Q24.440638 232.89792 24.268763 233.16354Q24.096888 233.42917 24.096888 233.80417Q24.096888 234.46042 24.534388 234.89792Q24.971888 235.3198 25.940638 235.3198L29.550013 235.3198L29.550013 236.3823L25.503138 236.3823Q24.800013 236.3823 24.456263 236.64792Q24.096888 236.89792 24.096888 237.47604Q24.096888 237.92917 24.331263 238.30417Q24.565638 238.67917 25.018763 238.85104Q25.471888 239.02292 26.315638 239.02292L29.550013 239.02292L29.550013 240.0698ZM27.550013 224.8198L27.675013 223.72604Q28.628138 223.97604 29.159388 224.67917Q29.690638 225.3823 29.690638 226.46042Q29.690638 227.8198 28.846888 228.6323Q28.003138 229.42917 26.487513 229.42917Q24.925013 229.42917 24.065638 228.61667Q23.190638 227.80417 23.190638 226.52292Q23.190638 225.27292 24.034388 224.49167Q24.878138 223.6948 26.425013 223.6948Q26.518763 223.6948 26.706263 223.6948L26.706263 228.33542Q27.737513 228.27292 28.284388 227.7573Q28.815638 227.24167 28.815638 226.46042Q28.815638 225.8823 28.518763 225.47604Q28.206263 225.05417 27.550013 224.8198ZM25.846888 228.27292L25.846888 224.80417Q25.050013 224.86667 24.659388 225.1948Q24.050013 225.71042 24.050013 226.5073Q24.050013 227.24167 24.534388 227.74167Q25.018763 228.22604 25.846888 228.27292ZM32.08126 217.05417Q30.971888 217.92917 29.503138 218.53854Q28.018763 219.1323 26.440638 219.1323Q25.050013 219.1323 23.768763 218.6948Q22.284388 218.16354 20.815638 217.05417L20.815638 216.30417Q22.034388 217.0073 22.550013 217.24167Q23.362513 217.60104 24.237513 217.80417Q25.331263 218.05417 26.440638 218.05417Q29.268763 218.05417 32.08126 216.30417L32.08126 217.05417ZM27.690638 215.49167L27.534388 214.46042Q28.159388 214.36667 28.487513 213.97604Q28.815638 213.5698 28.815638 212.83542Q28.815638 212.11667 28.534388 211.77292Q28.237513 211.41354 27.831263 211.41354Q27.471888 211.41354 27.268763 211.72604Q27.128138 211.9448 26.909388 212.80417Q26.612513 213.96042 26.409388 214.41354Q26.190638 214.85104 25.815638 215.08542Q25.440638 215.3198 24.971888 215.3198Q24.565638 215.3198 24.206263 215.1323Q23.846888 214.9448 23.612513 214.61667Q23.440638 214.36667 23.315638 213.9448Q23.190638 213.52292 23.190638 213.02292Q23.190638 212.30417 23.409388 211.7573Q23.612513 211.1948 23.971888 210.92917Q24.331263 210.66354 24.925013 210.5698L25.065638 211.60104Q24.596888 211.66354 24.331263 212.0073Q24.050013 212.33542 24.050013 212.96042Q24.050013 213.67917 24.300013 213.99167Q24.534388 214.30417 24.862513 214.30417Q25.065638 214.30417 25.221888 214.17917Q25.393763 214.03854 25.503138 213.77292Q25.565638 213.61667 25.768763 212.83542Q26.081263 211.71042 26.268763 211.27292Q26.456263 210.83542 26.815638 210.58542Q27.175013 210.33542 27.721888 210.33542Q28.253138 210.33542 28.721888 210.64792Q29.175013 210.9448 29.440638 211.52292Q29.690638 212.10104 29.690638 212.83542Q29.690638 214.05417 29.190638 214.6948Q28.675013 215.3198 27.690638 215.49167ZM27.550013 203.8198L27.675013 202.72604Q28.628138 202.97604 29.159388 203.67917Q29.690638 204.3823 29.690638 205.46042Q29.690638 206.8198 28.846888 207.6323Q28.003138 208.42917 26.487513 208.42917Q24.925013 208.42917 24.065638 207.61667Q23.190638 206.80417 23.190638 205.52292Q23.190638 204.27292 24.034388 203.49167Q24.878138 202.6948 26.425013 202.6948Q26.518763 202.6948 26.706263 202.6948L26.706263 207.33542Q27.737513 207.27292 28.284388 206.7573Q28.815638 206.24167 28.815638 205.46042Q28.815638 204.8823 28.518763 204.47604Q28.206263 204.05417 27.550013 203.8198ZM25.846888 207.27292L25.846888 203.80417Q25.050013 203.86667 24.659388 204.1948Q24.050013 204.71042 24.050013 205.5073Q24.050013 206.24167 24.534388 206.74167Q25.018763 207.22604 25.846888 207.27292ZM27.268763 197.0073L27.409388 195.97604Q28.471888 196.14792 29.081263 196.85104Q29.690638 197.55417 29.690638 198.5698Q29.690638 199.85104 28.862513 200.6323Q28.018763 201.39792 26.456263 201.39792Q25.456263 201.39792 24.706263 201.0698Q23.940638 200.72604 23.565638 200.05417Q23.190638 199.36667 23.190638 198.55417Q23.190638 197.55417 23.706263 196.91354Q24.206263 196.2573 25.159388 196.0698L25.315638 197.10104Q24.690638 197.24167 24.378138 197.61667Q24.050013 197.99167 24.050013 198.52292Q24.050013 199.3198 24.628138 199.8198Q25.190638 200.3198 26.425013 200.3198Q27.690638 200.3198 28.253138 199.83542Q28.815638 199.35104 28.815638 198.58542Q28.815638 197.96042 28.440638 197.55417Q28.065638 197.1323 27.268763 197.0073ZM26.440638 195.46042Q24.706263 195.46042 23.878138 194.5073Q23.190638 193.71042 23.190638 192.55417Q23.190638 191.27292 24.034388 190.46042Q24.862513 189.6323 26.346888 189.6323Q27.550013 189.6323 28.237513 189.99167Q28.925013 190.35104 29.315638 191.05417Q29.690638 191.74167 29.690638 192.55417Q29.690638 193.85104 28.862513 194.66354Q28.018763 195.46042 26.440638 195.46042ZM26.440638 194.3823Q27.628138 194.3823 28.221888 193.86667Q28.815638 193.33542 28.815638 192.55417Q28.815638 191.7573 28.221888 191.24167Q27.628138 190.72604 26.409388 190.72604Q25.253138 190.72604 24.659388 191.2573Q24.065638 191.77292 24.065638 192.55417Q24.065638 193.33542 24.659388 193.86667Q25.237513 194.3823 26.440638 194.3823ZM29.550013 188.0698L23.331263 188.0698L23.331263 187.1323L24.206263 187.1323Q23.190638 186.4448 23.190638 185.14792Q23.190638 184.58542 23.393763 184.11667Q23.596888 183.6323 23.925013 183.39792Q24.253138 183.16354 24.690638 183.0698Q24.987513 183.02292 25.721888 183.02292L29.550013 183.02292L29.550013 184.0698L25.768763 184.0698Q25.112513 184.0698 24.800013 184.1948Q24.487513 184.3198 24.300013 184.6323Q24.096888 184.9448 24.096888 185.36667Q24.096888 186.03854 24.534388 186.53854Q24.956263 187.02292 26.143763 187.02292L29.550013 187.02292L29.550013 188.0698ZM29.550013 177.03854L28.768763 177.03854Q29.690638 177.6323 29.690638 178.77292Q29.690638 179.52292 29.284388 180.14792Q28.862513 180.77292 28.128138 181.11667Q27.393763 181.46042 26.440638 181.46042Q25.518763 181.46042 24.753138 181.14792Q23.987513 180.83542 23.596888 180.21042Q23.190638 179.58542 23.190638 178.8198Q23.190638 178.2573 23.425013 177.8198Q23.659388 177.3823 24.034388 177.10104L20.956263 177.10104L20.956263 176.05417L29.550013 176.05417L29.550013 177.03854ZM26.440638 180.36667Q27.643763 180.36667 28.237513 179.86667Q28.815638 179.36667 28.815638 178.67917Q28.815638 177.99167 28.253138 177.5073Q27.690638 177.02292 26.534388 177.02292Q25.253138 177.02292 24.659388 177.52292Q24.065638 178.0073 24.065638 178.72604Q24.065638 179.42917 24.643763 179.89792Q25.206263 180.36667 26.440638 180.36667ZM27.690638 174.49167L27.534388 173.46042Q28.159388 173.36667 28.487513 172.97604Q28.815638 172.5698 28.815638 171.83542Q28.815638 171.11667 28.534388 170.77292Q28.237513 170.41354 27.831263 170.41354Q27.471888 170.41354 27.268763 170.72604Q27.128138 170.9448 26.909388 171.80417Q26.612513 172.96042 26.409388 173.41354Q26.190638 173.85104 25.815638 174.08542Q25.440638 174.3198 24.971888 174.3198Q24.565638 174.3198 24.206263 174.1323Q23.846888 173.9448 23.612513 173.61667Q23.440638 173.36667 23.315638 172.9448Q23.190638 172.52292 23.190638 172.02292Q23.190638 171.30417 23.409388 170.7573Q23.612513 170.1948 23.971888 169.92917Q24.331263 169.66354 24.925013 169.5698L25.065638 170.60104Q24.596888 170.66354 24.331263 171.0073Q24.050013 171.33542 24.050013 171.96042Q24.050013 172.67917 24.300013 172.99167Q24.534388 173.30417 24.862513 173.30417Q25.065638 173.30417 25.221888 173.17917Q25.393763 173.03854 25.503138 172.77292Q25.565638 172.61667 25.768763 171.83542Q26.081263 170.71042 26.268763 170.27292Q26.456263 169.83542 26.815638 169.58542Q27.175013 169.33542 27.721888 169.33542Q28.253138 169.33542 28.721888 169.64792Q29.175013 169.9448 29.440638 170.52292Q29.690638 171.10104 29.690638 171.83542Q29.690638 173.05417 29.190638 173.6948Q28.675013 174.3198 27.690638 174.49167ZM32.08126 166.3823L32.08126 167.1323Q29.268763 165.3823 26.440638 165.3823Q25.346888 165.3823 24.253138 165.6323Q23.378138 165.83542 22.565638 166.1948Q22.050013 166.42917 20.815638 167.1323L20.815638 166.3823Q22.284388 165.28854 23.768763 164.7573Q25.050013 164.30417 26.440638 164.30417Q28.018763 164.30417 29.503138 164.91354Q30.971888 165.52292 32.08126 166.3823Z" fill-rule="nonzero"/><path fill="#000000" d="M55.05 332.21564Q55.05 330.6844 55.3625 329.7625Q55.675 328.825 56.284374 328.325Q56.909374 327.825 57.846874 327.825Q58.534374 327.825 59.05 328.10626Q59.58125 328.3875 59.925 328.91876Q60.26875 329.4344 60.45625 330.1844Q60.64375 330.9344 60.64375 332.21564Q60.64375 333.73126 60.33125 334.65314Q60.034374 335.575 59.409374 336.09064Q58.8 336.59064 57.846874 336.59064Q56.6125 336.59064 55.89375 335.7Q55.05 334.6375 55.05 332.21564ZM56.128124 332.21564Q56.128124 334.325 56.628124 335.02814Q57.128124 335.73126 57.846874 335.73126Q58.58125 335.73126 59.065624 335.02814Q59.565624 334.325 59.565624 332.21564Q59.565624 330.09064 59.065624 329.40314Q58.58125 328.7 57.83125 328.7Q57.1125 328.7 56.675 329.3094Q56.128124 330.09064 56.128124 332.21564ZM62.64375 336.45L62.64375 335.2469L63.846874 335.2469L63.846874 336.45L62.64375 336.45ZM65.05 332.21564Q65.05 330.6844 65.3625 329.7625Q65.675 328.825 66.28438 328.325Q66.90938 327.825 67.84688 327.825Q68.53438 327.825 69.05 328.10626Q69.58125 328.3875 69.925 328.91876Q70.26875 329.4344 70.45625 330.1844Q70.64375 330.9344 70.64375 332.21564Q70.64375 333.73126 70.33125 334.65314Q70.03438 335.575 69.40938 336.09064Q68.8 336.59064 67.84688 336.59064Q66.6125 336.59064 65.89375 335.7Q65.05 334.6375 65.05 332.21564ZM66.12813 332.21564Q66.12813 334.325 66.62813 335.02814Q67.12813 335.73126 67.84688 335.73126Q68.58125 335.73126 69.06563 335.02814Q69.56563 334.325 69.56563 332.21564Q69.56563 330.09064 69.06563 329.40314Q68.58125 328.7 67.83125 328.7Q67.1125 328.7 66.675 329.3094Q66.12813 330.09064 66.12813 332.21564Z" fill-rule="nonzero"/><path fill="#000000" d="M55.05 271.17395Q55.05 269.6427 55.3625 268.72083Q55.675 267.78333 56.284374 267.28333Q56.909374 266.78333 57.846874 266.78333Q58.534374 266.78333 59.05 267.06458Q59.58125 267.34583 59.925 267.87708Q60.26875 268.3927 60.45625 269.1427Q60.64375 269.8927 60.64375 271.17395Q60.64375 272.68958 60.33125 273.61145Q60.034374 274.53333 59.409374 275.04895Q58.8 275.54895 57.846874 275.54895Q56.6125 275.54895 55.89375 274.65833Q55.05 273.59583 55.05 271.17395ZM56.128124 271.17395Q56.128124 273.28333 56.628124 273.98645Q57.128124 274.68958 57.846874 274.68958Q58.58125 274.68958 59.065624 273.98645Q59.565624 273.28333 59.565624 271.17395Q59.565624 269.04895 59.065624 268.36145Q58.58125 267.65833 57.83125 267.65833Q57.1125 267.65833 56.675 268.2677Q56.128124 269.04895 56.128124 271.17395ZM62.64375 275.40833L62.64375 274.2052L63.846874 274.2052L63.846874 275.40833L62.64375 275.40833ZM65.05 273.15833L66.15938 273.06458Q66.28438 273.87708 66.72188 274.28333Q67.175 274.68958 67.81563 274.68958Q68.56563 274.68958 69.09688 274.11145Q69.62813 273.53333 69.62813 272.59583Q69.62813 271.68958 69.1125 271.17395Q68.6125 270.6427 67.78438 270.6427Q67.28438 270.6427 66.8625 270.87708Q66.45625 271.11145 66.22188 271.47083L65.2375 271.34583L66.06563 266.93958L70.34688 266.93958L70.34688 267.93958L66.90938 267.93958L66.45625 270.25208Q67.22188 269.7052 68.06563 269.7052Q69.19063 269.7052 69.95625 270.48645Q70.7375 271.2677 70.7375 272.50208Q70.7375 273.65833 70.06563 274.5177Q69.2375 275.54895 67.81563 275.54895Q66.64375 275.54895 65.89375 274.8927Q65.15938 274.23645 65.05 273.15833Z" fill-rule="nonzero"/><path fill="#000000" d="M59.01875 214.36667L57.971874 214.36667L57.971874 207.64792Q57.58125 208.0073 56.95625 208.3823Q56.346874 208.74167 55.8625 208.91354L55.8625 207.89792Q56.7375 207.47604 57.39375 206.89792Q58.065624 206.30417 58.346874 205.74167L59.01875 205.74167L59.01875 214.36667ZM62.64375 214.36667L62.64375 213.16354L63.846874 213.16354L63.846874 214.36667L62.64375 214.36667ZM65.05 210.1323Q65.05 208.60104 65.3625 207.67917Q65.675 206.74167 66.28438 206.24167Q66.90938 205.74167 67.84688 205.74167Q68.53438 205.74167 69.05 206.02292Q69.58125 206.30417 69.925 206.83542Q70.26875 207.35104 70.45625 208.10104Q70.64375 208.85104 70.64375 210.1323Q70.64375 211.64792 70.33125 212.5698Q70.03438 213.49167 69.40938 214.0073Q68.8 214.5073 67.84688 214.5073Q66.6125 214.5073 65.89375 213.61667Q65.05 212.55417 65.05 210.1323ZM66.12813 210.1323Q66.12813 212.24167 66.62813 212.9448Q67.12813 213.64792 67.84688 213.64792Q68.58125 213.64792 69.06563 212.9448Q69.56563 212.24167 69.56563 210.1323Q69.56563 208.0073 69.06563 207.3198Q68.58125 206.61667 67.83125 206.61667Q67.1125 206.61667 66.675 207.22604Q66.12813 208.0073 66.12813 210.1323Z" fill-rule="nonzero"/><path fill="#000000" d="M59.01875 153.325L57.971874 153.325L57.971874 146.60625Q57.58125 146.96562 56.95625 147.34062Q56.346874 147.7 55.8625 147.87187L55.8625 146.85625Q56.7375 146.43437 57.39375 145.85625Q58.065624 145.2625 58.346874 144.7L59.01875 144.7L59.01875 153.325ZM62.64375 153.325L62.64375 152.12187L63.846874 152.12187L63.846874 153.325L62.64375 153.325ZM65.05 151.075L66.15938 150.98125Q66.28438 151.79375 66.72188 152.2Q67.175 152.60625 67.81563 152.60625Q68.56563 152.60625 69.09688 152.02812Q69.62813 151.45 69.62813 150.5125Q69.62813 149.60625 69.1125 149.09062Q68.6125 148.55937 67.78438 148.55937Q67.28438 148.55937 66.8625 148.79375Q66.45625 149.02812 66.22188 149.3875L65.2375 149.2625L66.06563 144.85625L70.34688 144.85625L70.34688 145.85625L66.90938 145.85625L66.45625 148.16875Q67.22188 147.62187 68.06563 147.62187Q69.19063 147.62187 69.95625 148.40312Q70.7375 149.18437 70.7375 150.41875Q70.7375 151.575 70.06563 152.43437Q69.2375 153.46562 67.81563 153.46562Q66.64375 153.46562 65.89375 152.80937Q65.15938 152.15312 65.05 151.075Z" fill-rule="nonzero"/><path fill="#000000" d="M60.596874 91.26771L60.596874 92.28333L54.909374 92.28333Q54.909374 91.90833 55.034374 91.54896Q55.253124 90.97083 55.721874 90.40833Q56.20625 89.84583 57.1125 89.11146Q58.51875 87.95521 59.003124 87.28333Q59.503124 86.61146 59.503124 86.01771Q59.503124 85.39271 59.05 84.97083Q58.596874 84.53333 57.878124 84.53333Q57.1125 84.53333 56.659374 84.98646Q56.20625 85.43958 56.190624 86.25208L55.1125 86.14271Q55.221874 84.92396 55.940624 84.29896Q56.675 83.65833 57.909374 83.65833Q59.14375 83.65833 59.8625 84.34583Q60.58125 85.03333 60.58125 86.04896Q60.58125 86.56458 60.3625 87.06458Q60.159374 87.54896 59.659374 88.11146Q59.175 88.65833 58.05 89.61146Q57.096874 90.40833 56.815624 90.70521Q56.55 90.98646 56.378124 91.26771L60.596874 91.26771ZM62.64375 92.28333L62.64375 91.08021L63.846874 91.08021L63.846874 92.28333L62.64375 92.28333ZM65.05 88.04896Q65.05 86.51771 65.3625 85.59583Q65.675 84.65833 66.28438 84.15833Q66.90938 83.65833 67.84688 83.65833Q68.53438 83.65833 69.05 83.93958Q69.58125 84.22083 69.925 84.75208Q70.26875 85.26771 70.45625 86.01771Q70.64375 86.76771 70.64375 88.04896Q70.64375 89.56458 70.33125 90.48646Q70.03438 91.40833 69.40938 91.92396Q68.8 92.42396 67.84688 92.42396Q66.6125 92.42396 65.89375 91.53333Q65.05 90.47083 65.05 88.04896ZM66.12813 88.04896Q66.12813 90.15833 66.62813 90.86146Q67.12813 91.56458 67.84688 91.56458Q68.58125 91.56458 69.06563 90.86146Q69.56563 90.15833 69.56563 88.04896Q69.56563 85.92396 69.06563 85.23646Q68.58125 84.53333 67.83125 84.53333Q67.1125 84.53333 66.675 85.14271Q66.12813 85.92396 66.12813 88.04896Z" fill-rule="nonzero"/><path fill="#000000" d="M137.16022 345.2625Q137.16022 343.1219 138.30084 341.91876Q139.45709 340.7 141.26959 340.7Q142.47272 340.7 143.42584 341.27814Q144.37897 341.84064 144.87897 342.85626Q145.37897 343.8719 145.37897 345.16876Q145.37897 346.46564 144.84772 347.4969Q144.31647 348.52814 143.34772 349.0594Q142.39459 349.59064 141.26959 349.59064Q140.05084 349.59064 139.09772 349.0125Q138.14459 348.41876 137.64459 347.41876Q137.16022 346.40314 137.16022 345.2625ZM138.33209 345.27814Q138.33209 346.84064 139.16022 347.73126Q140.00397 348.6219 141.26959 348.6219Q142.55084 348.6219 143.37897 347.73126Q144.20709 346.825 144.20709 345.15314Q144.20709 344.10626 143.84772 343.325Q143.50397 342.54376 142.81647 342.1219Q142.12897 341.6844 141.28522 341.6844Q140.08209 341.6844 139.20709 342.5125Q138.33209 343.34064 138.33209 345.27814ZM148.09772 349.45L145.73834 343.23126L146.84772 343.23126L148.19147 346.95Q148.39459 347.5594 148.58209 348.2Q148.72272 347.71564 148.97272 347.02814L150.36334 343.23126L151.44147 343.23126L149.08209 349.45L148.09772 349.45ZM155.62897 347.45L156.72272 347.575Q156.47272 348.52814 155.76959 349.0594Q155.06647 349.59064 153.98834 349.59064Q152.62897 349.59064 151.81647 348.7469Q151.01959 347.90314 151.01959 346.3875Q151.01959 344.825 151.83209 343.96564Q152.64459 343.09064 153.92584 343.09064Q155.17584 343.09064 155.95709 343.9344Q156.75397 344.77814 156.75397 346.325Q156.75397 346.41876 156.75397 346.60626L152.11334 346.60626Q152.17584 347.6375 152.69147 348.1844Q153.20709 348.71564 153.98834 348.71564Q154.56647 348.71564 154.97272 348.41876Q155.39459 348.10626 155.62897 347.45ZM152.17584 345.7469L155.64459 345.7469Q155.58209 344.95 155.25397 344.5594Q154.73834 343.95 153.94147 343.95Q153.20709 343.95 152.70709 344.4344Q152.22272 344.91876 152.17584 345.7469ZM158.36334 349.45L158.36334 343.23126L159.31647 343.23126L159.31647 344.16876Q159.67584 343.5125 159.97272 343.3094Q160.28522 343.09064 160.66022 343.09064Q161.19147 343.09064 161.73834 343.41876L161.37897 344.40314Q160.98834 344.16876 160.61334 344.16876Q160.25397 344.16876 159.97272 344.3875Q159.70709 344.59064 159.59772 344.96564Q159.41022 345.52814 159.41022 346.1844L159.41022 349.45L158.36334 349.45ZM166.44147 348.6844Q165.84772 349.1844 165.30084 349.3875Q164.76959 349.59064 164.14459 349.59064Q163.11334 349.59064 162.56647 349.09064Q162.01959 348.59064 162.01959 347.8094Q162.01959 347.35626 162.22272 346.98126Q162.42584 346.59064 162.76959 346.3719Q163.11334 346.1375 163.53522 346.02814Q163.83209 345.9344 164.47272 345.85626Q165.73834 345.71564 166.34772 345.4969Q166.34772 345.27814 166.34772 345.23126Q166.34772 344.575 166.05084 344.3094Q165.64459 343.96564 164.84772 343.96564Q164.11334 343.96564 163.75397 344.23126Q163.39459 344.48126 163.22272 345.1375L162.19147 344.9969Q162.33209 344.34064 162.66022 343.9344Q162.98834 343.52814 163.59772 343.3094Q164.20709 343.09064 165.00397 343.09064Q165.80084 343.09064 166.30084 343.27814Q166.80084 343.46564 167.03522 343.7469Q167.26959 344.02814 167.36334 344.46564Q167.41022 344.73126 167.41022 345.4344L167.41022 346.84064Q167.41022 348.3094 167.47272 348.7Q167.55084 349.09064 167.75397 349.45L166.64459 349.45Q166.48834 349.1219 166.44147 348.6844ZM166.34772 346.325Q165.76959 346.5594 164.62897 346.73126Q163.97272 346.825 163.70709 346.95Q163.44147 347.0594 163.28522 347.27814Q163.14459 347.4969 163.14459 347.77814Q163.14459 348.2 163.45709 348.48126Q163.78522 348.7625 164.39459 348.7625Q165.00397 348.7625 165.47272 348.4969Q165.95709 348.23126 166.17584 347.7625Q166.34772 347.40314 166.34772 346.71564L166.34772 346.325ZM169.34772 349.45L169.34772 340.85626L170.41022 340.85626L170.41022 349.45L169.34772 349.45ZM172.34772 349.45L172.34772 340.85626L173.41022 340.85626L173.41022 349.45L172.34772 349.45ZM177.56647 349.45L180.86334 340.85626L182.08209 340.85626L185.59772 349.45L184.31647 349.45L183.30084 346.84064L179.72272 346.84064L178.76959 349.45L177.56647 349.45ZM180.05084 345.91876L182.95709 345.91876L182.06647 343.54376Q181.64459 342.46564 181.45709 341.7625Q181.28522 342.59064 180.98834 343.40314L180.05084 345.91876ZM187.09772 349.45L184.73834 343.23126L185.84772 343.23126L187.19147 346.95Q187.39459 347.5594 187.58209 348.2Q187.72272 347.71564 187.97272 347.02814L189.36334 343.23126L190.44147 343.23126L188.08209 349.45L187.09772 349.45ZM194.62897 347.45L195.72272 347.575Q195.47272 348.52814 194.76959 349.0594Q194.06647 349.59064 192.98834 349.59064Q191.62897 349.59064 190.81647 348.7469Q190.01959 347.90314 190.01959 346.3875Q190.01959 344.825 190.83209 343.96564Q191.64459 343.09064 192.92584 343.09064Q194.17584 343.09064 194.95709 343.9344Q195.75397 344.77814 195.75397 346.325Q195.75397 346.41876 195.75397 346.60626L191.11334 346.60626Q191.17584 347.6375 191.69147 348.1844Q192.20709 348.71564 192.98834 348.71564Q193.56647 348.71564 193.97272 348.41876Q194.39459 348.10626 194.62897 347.45ZM191.17584 345.7469L194.64459 345.7469Q194.58209 344.95 194.25397 344.5594Q193.73834 343.95 192.94147 343.95Q192.20709 343.95 191.70709 344.4344Q191.22272 344.91876 191.17584 345.7469ZM197.36334 349.45L197.36334 343.23126L198.31647 343.23126L198.31647 344.16876Q198.67584 343.5125 198.97272 343.3094Q199.28522 343.09064 199.66022 343.09064Q200.19147 343.09064 200.73834 343.41876L200.37897 344.40314Q199.98834 344.16876 199.61334 344.16876Q199.25397 344.16876 198.97272 344.3875Q198.70709 344.59064 198.59772 344.96564Q198.41022 345.52814 198.41022 346.1844L198.41022 349.45L197.36334 349.45ZM205.44147 348.6844Q204.84772 349.1844 204.30084 349.3875Q203.76959 349.59064 203.14459 349.59064Q202.11334 349.59064 201.56647 349.09064Q201.01959 348.59064 201.01959 347.8094Q201.01959 347.35626 201.22272 346.98126Q201.42584 346.59064 201.76959 346.3719Q202.11334 346.1375 202.53522 346.02814Q202.83209 345.9344 203.47272 345.85626Q204.73834 345.71564 205.34772 345.4969Q205.34772 345.27814 205.34772 345.23126Q205.34772 344.575 205.05084 344.3094Q204.64459 343.96564 203.84772 343.96564Q203.11334 343.96564 202.75397 344.23126Q202.39459 344.48126 202.22272 345.1375L201.19147 344.9969Q201.33209 344.34064 201.66022 343.9344Q201.98834 343.52814 202.59772 343.3094Q203.20709 343.09064 204.00397 343.09064Q204.80084 343.09064 205.30084 343.27814Q205.80084 343.46564 206.03522 343.7469Q206.26959 344.02814 206.36334 344.46564Q206.41022 344.73126 206.41022 345.4344L206.41022 346.84064Q206.41022 348.3094 206.47272 348.7Q206.55084 349.09064 206.75397 349.45L205.64459 349.45Q205.48834 349.1219 205.44147 348.6844ZM205.34772 346.325Q204.76959 346.5594 203.62897 346.73126Q202.97272 346.825 202.70709 346.95Q202.44147 347.0594 202.28522 347.27814Q202.14459 347.4969 202.14459 347.77814Q202.14459 348.2 202.45709 348.48126Q202.78522 348.7625 203.39459 348.7625Q204.00397 348.7625 204.47272 348.4969Q204.95709 348.23126 205.17584 347.7625Q205.34772 347.40314 205.34772 346.71564L205.34772 346.325ZM208.17584 349.96564L209.20709 350.1219Q209.26959 350.59064 209.56647 350.8094Q209.95709 351.10626 210.62897 351.10626Q211.36334 351.10626 211.75397 350.8094Q212.16022 350.5125 212.30084 349.9969Q212.39459 349.66876 212.37897 348.6375Q211.69147 349.45 210.66022 349.45Q209.37897 349.45 208.67584 348.52814Q207.97272 347.59064 207.97272 346.3094Q207.97272 345.41876 208.28522 344.66876Q208.61334 343.90314 209.22272 343.4969Q209.83209 343.09064 210.66022 343.09064Q211.76959 343.09064 212.48834 343.98126L212.48834 343.23126L213.45709 343.23126L213.45709 348.60626Q213.45709 350.0594 213.16022 350.66876Q212.86334 351.27814 212.22272 351.6219Q211.58209 351.98126 210.64459 351.98126Q209.53522 351.98126 208.84772 351.48126Q208.16022 350.98126 208.17584 349.96564ZM209.05084 346.23126Q209.05084 347.45 209.53522 348.0125Q210.01959 348.575 210.75397 348.575Q211.48834 348.575 211.97272 348.0125Q212.47272 347.45 212.47272 346.2625Q212.47272 345.1219 211.95709 344.54376Q211.45709 343.96564 210.73834 343.96564Q210.03522 343.96564 209.53522 344.54376Q209.05084 345.10626 209.05084 346.23126ZM219.62897 347.45L220.72272 347.575Q220.47272 348.52814 219.76959 349.0594Q219.06647 349.59064 217.98834 349.59064Q216.62897 349.59064 215.81647 348.7469Q215.01959 347.90314 215.01959 346.3875Q215.01959 344.825 215.83209 343.96564Q216.64459 343.09064 217.92584 343.09064Q219.17584 343.09064 219.95709 343.9344Q220.75397 344.77814 220.75397 346.325Q220.75397 346.41876 220.75397 346.60626L216.11334 346.60626Q216.17584 347.6375 216.69147 348.1844Q217.20709 348.71564 217.98834 348.71564Q218.56647 348.71564 218.97272 348.41876Q219.39459 348.10626 219.62897 347.45ZM216.17584 345.7469L219.64459 345.7469Q219.58209 344.95 219.25397 344.5594Q218.73834 343.95 217.94147 343.95Q217.20709 343.95 216.70709 344.4344Q216.22272 344.91876 216.17584 345.7469Z" fill-rule="nonzero"/><path fill="#000000" d="M284.9375 348.52814Q285.73438 349.075 286.39062 349.325L286.0625 350.1219Q285.14062 349.77814 284.21875 349.0594Q283.26562 349.59064 282.10938 349.59064Q280.9375 349.59064 279.98438 349.02814Q279.04688 348.46564 278.53125 347.45Q278.01562 346.4344 278.01562 345.15314Q278.01562 343.8875 278.53125 342.84064Q279.04688 341.79376 280.0 341.2469Q280.95312 340.7 282.125 340.7Q283.3125 340.7 284.26562 341.27814Q285.23438 341.84064 285.73438 342.85626Q286.23438 343.8719 286.23438 345.15314Q286.23438 346.21564 285.90625 347.0594Q285.59375 347.90314 284.9375 348.52814ZM282.4375 347.075Q283.42188 347.35626 284.0625 347.90314Q285.0625 346.98126 285.0625 345.15314Q285.0625 344.10626 284.70312 343.325Q284.34375 342.54376 283.65625 342.1219Q282.98438 341.6844 282.14062 341.6844Q280.85938 341.6844 280.01562 342.5594Q279.1875 343.41876 279.1875 345.15314Q279.1875 346.825 280.01562 347.73126Q280.84375 348.6219 282.14062 348.6219Q282.75 348.6219 283.28125 348.3875Q282.75 348.04376 282.15625 347.90314L282.4375 347.075ZM291.375 349.45L291.375 348.52814Q290.64062 349.59064 289.39062 349.59064Q288.84375 349.59064 288.35938 349.3875Q287.89062 349.16876 287.65625 348.85626Q287.42188 348.52814 287.32812 348.0594Q287.26562 347.7625 287.26562 347.075L287.26562 343.23126L288.32812 343.23126L288.32812 346.6844Q288.32812 347.4969 288.39062 347.79376Q288.48438 348.2 288.79688 348.45Q289.125 348.6844 289.60938 348.6844Q290.07812 348.6844 290.48438 348.45Q290.90625 348.2 291.07812 347.77814Q291.26562 347.35626 291.26562 346.5594L291.26562 343.23126L292.3125 343.23126L292.3125 349.45L291.375 349.45ZM298.35938 348.6844Q297.76562 349.1844 297.21875 349.3875Q296.6875 349.59064 296.0625 349.59064Q295.03125 349.59064 294.48438 349.09064Q293.9375 348.59064 293.9375 347.8094Q293.9375 347.35626 294.14062 346.98126Q294.34375 346.59064 294.6875 346.3719Q295.03125 346.1375 295.45312 346.02814Q295.75 345.9344 296.39062 345.85626Q297.65625 345.71564 298.26562 345.4969Q298.26562 345.27814 298.26562 345.23126Q298.26562 344.575 297.96875 344.3094Q297.5625 343.96564 296.76562 343.96564Q296.03125 343.96564 295.67188 344.23126Q295.3125 344.48126 295.14062 345.1375L294.10938 344.9969Q294.25 344.34064 294.57812 343.9344Q294.90625 343.52814 295.51562 343.3094Q296.125 343.09064 296.92188 343.09064Q297.71875 343.09064 298.21875 343.27814Q298.71875 343.46564 298.95312 343.7469Q299.1875 344.02814 299.28125 344.46564Q299.32812 344.73126 299.32812 345.4344L299.32812 346.84064Q299.32812 348.3094 299.39062 348.7Q299.46875 349.09064 299.67188 349.45L298.5625 349.45Q298.40625 349.1219 298.35938 348.6844ZM298.26562 346.325Q297.6875 346.5594 296.54688 346.73126Q295.89062 346.825 295.625 346.95Q295.35938 347.0594 295.20312 347.27814Q295.0625 347.4969 295.0625 347.77814Q295.0625 348.2 295.375 348.48126Q295.70312 348.7625 296.3125 348.7625Q296.92188 348.7625 297.39062 348.4969Q297.875 348.23126 298.09375 347.7625Q298.26562 347.40314 298.26562 346.71564L298.26562 346.325ZM301.26562 349.45L301.26562 340.85626L302.32812 340.85626L302.32812 349.45L301.26562 349.45ZM304.29688 342.075L304.29688 340.85626L305.35938 340.85626L305.35938 342.075L304.29688 342.075ZM304.29688 349.45L304.29688 343.23126L305.35938 343.23126L305.35938 349.45L304.29688 349.45ZM309.59375 348.5125L309.75 349.4344Q309.29688 349.52814 308.95312 349.52814Q308.375 349.52814 308.0625 349.35626Q307.75 349.16876 307.60938 348.8719Q307.48438 348.575 307.48438 347.6219L307.48438 344.04376L306.71875 344.04376L306.71875 343.23126L307.48438 343.23126L307.48438 341.6844L308.53125 341.0594L308.53125 343.23126L309.59375 343.23126L309.59375 344.04376L308.53125 344.04376L308.53125 347.6844Q308.53125 348.1375 308.57812 348.2625Q308.64062 348.3875 308.76562 348.46564Q308.89062 348.54376 309.125 348.54376Q309.3125 348.54376 309.59375 348.5125ZM314.35938 348.6844Q313.76562 349.1844 313.21875 349.3875Q312.6875 349.59064 312.0625 349.59064Q311.03125 349.59064 310.48438 349.09064Q309.9375 348.59064 309.9375 347.8094Q309.9375 347.35626 310.14062 346.98126Q310.34375 346.59064 310.6875 346.3719Q311.03125 346.1375 311.45312 346.02814Q311.75 345.9344 312.39062 345.85626Q313.65625 345.71564 314.26562 345.4969Q314.26562 345.27814 314.26562 345.23126Q314.26562 344.575 313.96875 344.3094Q313.5625 343.96564 312.76562 343.96564Q312.03125 343.96564 311.67188 344.23126Q311.3125 344.48126 311.14062 345.1375L310.10938 344.9969Q310.25 344.34064 310.57812 343.9344Q310.90625 343.52814 311.51562 343.3094Q312.125 343.09064 312.92188 343.09064Q313.71875 343.09064 314.21875 343.27814Q314.71875 343.46564 314.95312 343.7469Q315.1875 344.02814 315.28125 344.46564Q315.32812 344.73126 315.32812 345.4344L315.32812 346.84064Q315.32812 348.3094 315.39062 348.7Q315.46875 349.09064 315.67188 349.45L314.5625 349.45Q314.40625 349.1219 314.35938 348.6844ZM314.26562 346.325Q313.6875 346.5594 312.54688 346.73126Q311.89062 346.825 311.625 346.95Q311.35938 347.0594 311.20312 347.27814Q311.0625 347.4969 311.0625 347.77814Q311.0625 348.2 311.375 348.48126Q311.70312 348.7625 312.3125 348.7625Q312.92188 348.7625 313.39062 348.4969Q313.875 348.23126 314.09375 347.7625Q314.26562 347.40314 314.26562 346.71564L314.26562 346.325ZM319.59375 348.5125L319.75 349.4344Q319.29688 349.52814 318.95312 349.52814Q318.375 349.52814 318.0625 349.35626Q317.75 349.16876 317.60938 348.8719Q317.48438 348.575 317.48438 347.6219L317.48438 344.04376L316.71875 344.04376L316.71875 343.23126L317.48438 343.23126L317.48438 341.6844L318.53125 341.0594L318.53125 343.23126L319.59375 343.23126L319.59375 344.04376L318.53125 344.04376L318.53125 347.6844Q318.53125 348.1375 318.57812 348.2625Q318.64062 348.3875 318.76562 348.46564Q318.89062 348.54376 319.125 348.54376Q319.3125 348.54376 319.59375 348.5125ZM320.29688 342.075L320.29688 340.85626L321.35938 340.85626L321.35938 342.075L320.29688 342.075ZM320.29688 349.45L320.29688 343.23126L321.35938 343.23126L321.35938 349.45L320.29688 349.45ZM325.01562 349.45L322.65625 343.23126L323.76562 343.23126L325.10938 346.95Q325.3125 347.5594 325.5 348.2Q325.64062 347.71564 325.89062 347.02814L327.28125 343.23126L328.35938 343.23126L326.0 349.45L325.01562 349.45ZM332.54688 347.45L333.64062 347.575Q333.39062 348.52814 332.6875 349.0594Q331.98438 349.59064 330.90625 349.59064Q329.54688 349.59064 328.73438 348.7469Q327.9375 347.90314 327.9375 346.3875Q327.9375 344.825 328.75 343.96564Q329.5625 343.09064 330.84375 343.09064Q332.09375 343.09064 332.875 343.9344Q333.67188 344.77814 333.67188 346.325Q333.67188 346.41876 333.67188 346.60626L329.03125 346.60626Q329.09375 347.6375 329.60938 348.1844Q330.125 348.71564 330.90625 348.71564Q331.48438 348.71564 331.89062 348.41876Q332.3125 348.10626 332.54688 347.45ZM329.09375 345.7469L332.5625 345.7469Q332.5 344.95 332.17188 344.5594Q331.65625 343.95 330.85938 343.95Q330.125 343.95 329.625 344.4344Q329.14062 344.91876 329.09375 345.7469ZM337.48438 349.45L340.78125 340.85626L342.0 340.85626L345.51562 349.45L344.23438 349.45L343.21875 346.84064L339.64062 346.84064L338.6875 349.45L337.48438 349.45ZM339.96875 345.91876L342.875 345.91876L341.98438 343.54376Q341.5625 342.46564 341.375 341.7625Q341.20312 342.59064 340.90625 343.40314L339.96875 345.91876ZM347.01562 349.45L344.65625 343.23126L345.76562 343.23126L347.10938 346.95Q347.3125 347.5594 347.5 348.2Q347.64062 347.71564 347.89062 347.02814L349.28125 343.23126L350.35938 343.23126L348.0 349.45L347.01562 349.45ZM354.54688 347.45L355.64062 347.575Q355.39062 348.52814 354.6875 349.0594Q353.98438 349.59064 352.90625 349.59064Q351.54688 349.59064 350.73438 348.7469Q349.9375 347.90314 349.9375 346.3875Q349.9375 344.825 350.75 343.96564Q351.5625 343.09064 352.84375 343.09064Q354.09375 343.09064 354.875 343.9344Q355.67188 344.77814 355.67188 346.325Q355.67188 346.41876 355.67188 346.60626L351.03125 346.60626Q351.09375 347.6375 351.60938 348.1844Q352.125 348.71564 352.90625 348.71564Q353.48438 348.71564 353.89062 348.41876Q354.3125 348.10626 354.54688 347.45ZM351.09375 345.7469L354.5625 345.7469Q354.5 344.95 354.17188 344.5594Q353.65625 343.95 352.85938 343.95Q352.125 343.95 351.625 344.4344Q351.14062 344.91876 351.09375 345.7469ZM357.28125 349.45L357.28125 343.23126L358.23438 343.23126L358.23438 344.16876Q358.59375 343.5125 358.89062 343.3094Q359.20312 343.09064 359.57812 343.09064Q360.10938 343.09064 360.65625 343.41876L360.29688 344.40314Q359.90625 344.16876 359.53125 344.16876Q359.17188 344.16876 358.89062 344.3875Q358.625 344.59064 358.51562 344.96564Q358.32812 345.52814 358.32812 346.1844L358.32812 349.45L357.28125 349.45ZM365.35938 348.6844Q364.76562 349.1844 364.21875 349.3875Q363.6875 349.59064 363.0625 349.59064Q362.03125 349.59064 361.48438 349.09064Q360.9375 348.59064 360.9375 347.8094Q360.9375 347.35626 361.14062 346.98126Q361.34375 346.59064 361.6875 346.3719Q362.03125 346.1375 362.45312 346.02814Q362.75 345.9344 363.39062 345.85626Q364.65625 345.71564 365.26562 345.4969Q365.26562 345.27814 365.26562 345.23126Q365.26562 344.575 364.96875 344.3094Q364.5625 343.96564 363.76562 343.96564Q363.03125 343.96564 362.67188 344.23126Q362.3125 344.48126 362.14062 345.1375L361.10938 344.9969Q361.25 344.34064 361.57812 343.9344Q361.90625 343.52814 362.51562 343.3094Q363.125 343.09064 363.92188 343.09064Q364.71875 343.09064 365.21875 343.27814Q365.71875 343.46564 365.95312 343.7469Q366.1875 344.02814 366.28125 344.46564Q366.32812 344.73126 366.32812 345.4344L366.32812 346.84064Q366.32812 348.3094 366.39062 348.7Q366.46875 349.09064 366.67188 349.45L365.5625 349.45Q365.40625 349.1219 365.35938 348.6844ZM365.26562 346.325Q364.6875 346.5594 363.54688 346.73126Q362.89062 346.825 362.625 346.95Q362.35938 347.0594 362.20312 347.27814Q362.0625 347.4969 362.0625 347.77814Q362.0625 348.2 362.375 348.48126Q362.70312 348.7625 363.3125 348.7625Q363.92188 348.7625 364.39062 348.4969Q364.875 348.23126 365.09375 347.7625Q365.26562 347.40314 365.26562 346.71564L365.26562 346.325ZM368.09375 349.96564L369.125 350.1219Q369.1875 350.59064 369.48438 350.8094Q369.875 351.10626 370.54688 351.10626Q371.28125 351.10626 371.67188 350.8094Q372.07812 350.5125 372.21875 349.9969Q372.3125 349.66876 372.29688 348.6375Q371.60938 349.45 370.57812 349.45Q369.29688 349.45 368.59375 348.52814Q367.89062 347.59064 367.89062 346.3094Q367.89062 345.41876 368.20312 344.66876Q368.53125 343.90314 369.14062 343.4969Q369.75 343.09064 370.57812 343.09064Q371.6875 343.09064 372.40625 343.98126L372.40625 343.23126L373.375 343.23126L373.375 348.60626Q373.375 350.0594 373.07812 350.66876Q372.78125 351.27814 372.14062 351.6219Q371.5 351.98126 370.5625 351.98126Q369.45312 351.98126 368.76562 351.48126Q368.07812 350.98126 368.09375 349.96564ZM368.96875 346.23126Q368.96875 347.45 369.45312 348.0125Q369.9375 348.575 370.67188 348.575Q371.40625 348.575 371.89062 348.0125Q372.39062 347.45 372.39062 346.2625Q372.39062 345.1219 371.875 344.54376Q371.375 343.96564 370.65625 343.96564Q369.95312 343.96564 369.45312 344.54376Q368.96875 345.10626 368.96875 346.23126ZM379.54688 347.45L380.64062 347.575Q380.39062 348.52814 379.6875 349.0594Q378.98438 349.59064 377.90625 349.59064Q376.54688 349.59064 375.73438 348.7469Q374.9375 347.90314 374.9375 346.3875Q374.9375 344.825 375.75 343.96564Q376.5625 343.09064 377.84375 343.09064Q379.09375 343.09064 379.875 343.9344Q380.67188 344.77814 380.67188 346.325Q380.67188 346.41876 380.67188 346.60626L376.03125 346.60626Q376.09375 347.6375 376.60938 348.1844Q377.125 348.71564 377.90625 348.71564Q378.48438 348.71564 378.89062 348.41876Q379.3125 348.10626 379.54688 347.45ZM376.09375 345.7469L379.5625 345.7469Q379.5 344.95 379.17188 344.5594Q378.65625 343.95 377.85938 343.95Q377.125 343.95 376.625 344.4344Q376.14062 344.91876 376.09375 345.7469Z" fill-rule="nonzero"/><path fill="#000000" d="M433.3554 348.52814Q434.15228 349.075 434.80853 349.325L434.4804 350.1219Q433.55853 349.77814 432.63666 349.0594Q431.68353 349.59064 430.52728 349.59064Q429.3554 349.59064 428.40228 349.02814Q427.46478 348.46564 426.94916 347.45Q426.43353 346.4344 426.43353 345.15314Q426.43353 343.8875 426.94916 342.84064Q427.46478 341.79376 428.4179 341.2469Q429.37103 340.7 430.5429 340.7Q431.7304 340.7 432.68353 341.27814Q433.65228 341.84064 434.15228 342.85626Q434.65228 343.8719 434.65228 345.15314Q434.65228 346.21564 434.32416 347.0594Q434.01166 347.90314 433.3554 348.52814ZM430.8554 347.075Q431.83978 347.35626 432.4804 347.90314Q433.4804 346.98126 433.4804 345.15314Q433.4804 344.10626 433.12103 343.325Q432.76166 342.54376 432.07416 342.1219Q431.40228 341.6844 430.55853 341.6844Q429.27728 341.6844 428.43353 342.5594Q427.6054 343.41876 427.6054 345.15314Q427.6054 346.825 428.43353 347.73126Q429.26166 348.6219 430.55853 348.6219Q431.1679 348.6219 431.69916 348.3875Q431.1679 348.04376 430.57416 347.90314L430.8554 347.075ZM439.7929 349.45L439.7929 348.52814Q439.05853 349.59064 437.80853 349.59064Q437.26166 349.59064 436.77728 349.3875Q436.30853 349.16876 436.07416 348.85626Q435.83978 348.52814 435.74603 348.0594Q435.68353 347.7625 435.68353 347.075L435.68353 343.23126L436.74603 343.23126L436.74603 346.6844Q436.74603 347.4969 436.80853 347.79376Q436.90228 348.2 437.21478 348.45Q437.5429 348.6844 438.02728 348.6844Q438.49603 348.6844 438.90228 348.45Q439.32416 348.2 439.49603 347.77814Q439.68353 347.35626 439.68353 346.5594L439.68353 343.23126L440.7304 343.23126L440.7304 349.45L439.7929 349.45ZM446.77728 348.6844Q446.18353 349.1844 445.63666 349.3875Q445.1054 349.59064 444.4804 349.59064Q443.44916 349.59064 442.90228 349.09064Q442.3554 348.59064 442.3554 347.8094Q442.3554 347.35626 442.55853 346.98126Q442.76166 346.59064 443.1054 346.3719Q443.44916 346.1375 443.87103 346.02814Q444.1679 345.9344 444.80853 345.85626Q446.07416 345.71564 446.68353 345.4969Q446.68353 345.27814 446.68353 345.23126Q446.68353 344.575 446.38666 344.3094Q445.9804 343.96564 445.18353 343.96564Q444.44916 343.96564 444.08978 344.23126Q443.7304 344.48126 443.55853 345.1375L442.52728 344.9969Q442.6679 344.34064 442.99603 343.9344Q443.32416 343.52814 443.93353 343.3094Q444.5429 343.09064 445.33978 343.09064Q446.13666 343.09064 446.63666 343.27814Q447.13666 343.46564 447.37103 343.7469Q447.6054 344.02814 447.69916 344.46564Q447.74603 344.73126 447.74603 345.4344L447.74603 346.84064Q447.74603 348.3094 447.80853 348.7Q447.88666 349.09064 448.08978 349.45L446.9804 349.45Q446.82416 349.1219 446.77728 348.6844ZM446.68353 346.325Q446.1054 346.5594 444.96478 346.73126Q444.30853 346.825 444.0429 346.95Q443.77728 347.0594 443.62103 347.27814Q443.4804 347.4969 443.4804 347.77814Q443.4804 348.2 443.7929 348.48126Q444.12103 348.7625 444.7304 348.7625Q445.33978 348.7625 445.80853 348.4969Q446.2929 348.23126 446.51166 347.7625Q446.68353 347.40314 446.68353 346.71564L446.68353 346.325ZM449.71478 349.45L449.71478 343.23126L450.65228 343.23126L450.65228 344.10626Q451.33978 343.09064 452.63666 343.09064Q453.19916 343.09064 453.6679 343.29376Q454.15228 343.4969 454.38666 343.825Q454.62103 344.15314 454.71478 344.59064Q454.76166 344.8875 454.76166 345.6219L454.76166 349.45L453.71478 349.45L453.71478 345.66876Q453.71478 345.0125 453.58978 344.7Q453.46478 344.3875 453.15228 344.2Q452.83978 343.9969 452.4179 343.9969Q451.74603 343.9969 451.24603 344.4344Q450.76166 344.85626 450.76166 346.04376L450.76166 349.45L449.71478 349.45ZM459.01166 348.5125L459.1679 349.4344Q458.71478 349.52814 458.37103 349.52814Q457.7929 349.52814 457.4804 349.35626Q457.1679 349.16876 457.02728 348.8719Q456.90228 348.575 456.90228 347.6219L456.90228 344.04376L456.13666 344.04376L456.13666 343.23126L456.90228 343.23126L456.90228 341.6844L457.94916 341.0594L457.94916 343.23126L459.01166 343.23126L459.01166 344.04376L457.94916 344.04376L457.94916 347.6844Q457.94916 348.1375 457.99603 348.2625Q458.05853 348.3875 458.18353 348.46564Q458.30853 348.54376 458.5429 348.54376Q458.7304 348.54376 459.01166 348.5125ZM459.71478 342.075L459.71478 340.85626L460.77728 340.85626L460.77728 342.075L459.71478 342.075ZM459.71478 349.45L459.71478 343.23126L460.77728 343.23126L460.77728 349.45L459.71478 349.45ZM466.77728 348.6844Q466.18353 349.1844 465.63666 349.3875Q465.1054 349.59064 464.4804 349.59064Q463.44916 349.59064 462.90228 349.09064Q462.3554 348.59064 462.3554 347.8094Q462.3554 347.35626 462.55853 346.98126Q462.76166 346.59064 463.1054 346.3719Q463.44916 346.1375 463.87103 346.02814Q464.1679 345.9344 464.80853 345.85626Q466.07416 345.71564 466.68353 345.4969Q466.68353 345.27814 466.68353 345.23126Q466.68353 344.575 466.38666 344.3094Q465.9804 343.96564 465.18353 343.96564Q464.44916 343.96564 464.08978 344.23126Q463.7304 344.48126 463.55853 345.1375L462.52728 344.9969Q462.6679 344.34064 462.99603 343.9344Q463.32416 343.52814 463.93353 343.3094Q464.5429 343.09064 465.33978 343.09064Q466.13666 343.09064 466.63666 343.27814Q467.13666 343.46564 467.37103 343.7469Q467.6054 344.02814 467.69916 344.46564Q467.74603 344.73126 467.74603 345.4344L467.74603 346.84064Q467.74603 348.3094 467.80853 348.7Q467.88666 349.09064 468.08978 349.45L466.9804 349.45Q466.82416 349.1219 466.77728 348.6844ZM466.68353 346.325Q466.1054 346.5594 464.96478 346.73126Q464.30853 346.825 464.0429 346.95Q463.77728 347.0594 463.62103 347.27814Q463.4804 347.4969 463.4804 347.77814Q463.4804 348.2 463.7929 348.48126Q464.12103 348.7625 464.7304 348.7625Q465.33978 348.7625 465.80853 348.4969Q466.2929 348.23126 466.51166 347.7625Q466.68353 347.40314 466.68353 346.71564L466.68353 346.325ZM472.01166 348.5125L472.1679 349.4344Q471.71478 349.52814 471.37103 349.52814Q470.7929 349.52814 470.4804 349.35626Q470.1679 349.16876 470.02728 348.8719Q469.90228 348.575 469.90228 347.6219L469.90228 344.04376L469.13666 344.04376L469.13666 343.23126L469.90228 343.23126L469.90228 341.6844L470.94916 341.0594L470.94916 343.23126L472.01166 343.23126L472.01166 344.04376L470.94916 344.04376L470.94916 347.6844Q470.94916 348.1375 470.99603 348.2625Q471.05853 348.3875 471.18353 348.46564Q471.30853 348.54376 471.5429 348.54376Q471.7304 348.54376 472.01166 348.5125ZM472.71478 342.075L472.71478 340.85626L473.77728 340.85626L473.77728 342.075L472.71478 342.075ZM472.71478 349.45L472.71478 343.23126L473.77728 343.23126L473.77728 349.45L472.71478 349.45ZM477.43353 349.45L475.07416 343.23126L476.18353 343.23126L477.52728 346.95Q477.7304 347.5594 477.9179 348.2Q478.05853 347.71564 478.30853 347.02814L479.69916 343.23126L480.77728 343.23126L478.4179 349.45L477.43353 349.45ZM484.96478 347.45L486.05853 347.575Q485.80853 348.52814 485.1054 349.0594Q484.40228 349.59064 483.32416 349.59064Q481.96478 349.59064 481.15228 348.7469Q480.3554 347.90314 480.3554 346.3875Q480.3554 344.825 481.1679 343.96564Q481.9804 343.09064 483.26166 343.09064Q484.51166 343.09064 485.2929 343.9344Q486.08978 344.77814 486.08978 346.325Q486.08978 346.41876 486.08978 346.60626L481.44916 346.60626Q481.51166 347.6375 482.02728 348.1844Q482.5429 348.71564 483.32416 348.71564Q483.90228 348.71564 484.30853 348.41876Q484.7304 348.10626 484.96478 347.45ZM481.51166 345.7469L484.9804 345.7469Q484.9179 344.95 484.58978 344.5594Q484.07416 343.95 483.27728 343.95Q482.5429 343.95 482.0429 344.4344Q481.55853 344.91876 481.51166 345.7469ZM489.90228 349.45L493.19916 340.85626L494.4179 340.85626L497.93353 349.45L496.65228 349.45L495.63666 346.84064L492.05853 346.84064L491.1054 349.45L489.90228 349.45ZM492.38666 345.91876L495.2929 345.91876L494.40228 343.54376Q493.9804 342.46564 493.7929 341.7625Q493.62103 342.59064 493.32416 343.40314L492.38666 345.91876ZM499.43353 349.45L497.07416 343.23126L498.18353 343.23126L499.52728 346.95Q499.7304 347.5594 499.9179 348.2Q500.05853 347.71564 500.30853 347.02814L501.69916 343.23126L502.77728 343.23126L500.4179 349.45L499.43353 349.45ZM506.96478 347.45L508.05853 347.575Q507.80853 348.52814 507.1054 349.0594Q506.40228 349.59064 505.32416 349.59064Q503.96478 349.59064 503.15228 348.7469Q502.3554 347.90314 502.3554 346.3875Q502.3554 344.825 503.1679 343.96564Q503.9804 343.09064 505.26166 343.09064Q506.51166 343.09064 507.2929 343.9344Q508.08978 344.77814 508.08978 346.325Q508.08978 346.41876 508.08978 346.60626L503.44916 346.60626Q503.51166 347.6375 504.02728 348.1844Q504.5429 348.71564 505.32416 348.71564Q505.90228 348.71564 506.30853 348.41876Q506.7304 348.10626 506.96478 347.45ZM503.51166 345.7469L506.9804 345.7469Q506.9179 344.95 506.58978 344.5594Q506.07416 343.95 505.27728 343.95Q504.5429 343.95 504.0429 344.4344Q503.55853 344.91876 503.51166 345.7469ZM509.69916 349.45L509.69916 343.23126L510.65228 343.23126L510.65228 344.16876Q511.01166 343.5125 511.30853 343.3094Q511.62103 343.09064 511.99603 343.09064Q512.5273 343.09064 513.07416 343.41876L512.7148 344.40314Q512.32416 344.16876 511.94916 344.16876Q511.58978 344.16876 511.30853 344.3875Q511.0429 344.59064 510.93353 344.96564Q510.74603 345.52814 510.74603 346.1844L510.74603 349.45L509.69916 349.45ZM517.7773 348.6844Q517.18353 349.1844 516.63666 349.3875Q516.1054 349.59064 515.4804 349.59064Q514.44916 349.59064 513.9023 349.09064Q513.3554 348.59064 513.3554 347.8094Q513.3554 347.35626 513.55853 346.98126Q513.76166 346.59064 514.1054 346.3719Q514.44916 346.1375 514.87103 346.02814Q515.1679 345.9344 515.80853 345.85626Q517.07416 345.71564 517.68353 345.4969Q517.68353 345.27814 517.68353 345.23126Q517.68353 344.575 517.38666 344.3094Q516.9804 343.96564 516.18353 343.96564Q515.44916 343.96564 515.0898 344.23126Q514.7304 344.48126 514.55853 345.1375L513.5273 344.9969Q513.6679 344.34064 513.99603 343.9344Q514.32416 343.52814 514.93353 343.3094Q515.5429 343.09064 516.3398 343.09064Q517.13666 343.09064 517.63666 343.27814Q518.13666 343.46564 518.37103 343.7469Q518.6054 344.02814 518.69916 344.46564Q518.74603 344.73126 518.74603 345.4344L518.74603 346.84064Q518.74603 348.3094 518.80853 348.7Q518.88666 349.09064 519.0898 349.45L517.9804 349.45Q517.82416 349.1219 517.7773 348.6844ZM517.68353 346.325Q517.1054 346.5594 515.9648 346.73126Q515.30853 346.825 515.0429 346.95Q514.7773 347.0594 514.62103 347.27814Q514.4804 347.4969 514.4804 347.77814Q514.4804 348.2 514.7929 348.48126Q515.12103 348.7625 515.7304 348.7625Q516.3398 348.7625 516.80853 348.4969Q517.2929 348.23126 517.51166 347.7625Q517.68353 347.40314 517.68353 346.71564L517.68353 346.325ZM520.51166 349.96564L521.5429 350.1219Q521.6054 350.59064 521.9023 350.8094Q522.2929 351.10626 522.9648 351.10626Q523.69916 351.10626 524.0898 350.8094Q524.49603 350.5125 524.63666 349.9969Q524.7304 349.66876 524.7148 348.6375Q524.0273 349.45 522.99603 349.45Q521.7148 349.45 521.01166 348.52814Q520.30853 347.59064 520.30853 346.3094Q520.30853 345.41876 520.62103 344.66876Q520.94916 343.90314 521.55853 343.4969Q522.1679 343.09064 522.99603 343.09064Q524.1054 343.09064 524.82416 343.98126L524.82416 343.23126L525.7929 343.23126L525.7929 348.60626Q525.7929 350.0594 525.49603 350.66876Q525.19916 351.27814 524.55853 351.6219Q523.9179 351.98126 522.9804 351.98126Q521.87103 351.98126 521.18353 351.48126Q520.49603 350.98126 520.51166 349.96564ZM521.38666 346.23126Q521.38666 347.45 521.87103 348.0125Q522.3554 348.575 523.0898 348.575Q523.82416 348.575 524.30853 348.0125Q524.80853 347.45 524.80853 346.2625Q524.80853 345.1219 524.2929 344.54376Q523.7929 343.96564 523.07416 343.96564Q522.37103 343.96564 521.87103 344.54376Q521.38666 345.10626 521.38666 346.23126ZM531.9648 347.45L533.05853 347.575Q532.80853 348.52814 532.1054 349.0594Q531.4023 349.59064 530.32416 349.59064Q528.9648 349.59064 528.1523 348.7469Q527.3554 347.90314 527.3554 346.3875Q527.3554 344.825 528.1679 343.96564Q528.9804 343.09064 530.26166 343.09064Q531.51166 343.09064 532.2929 343.9344Q533.0898 344.77814 533.0898 346.325Q533.0898 346.41876 533.0898 346.60626L528.44916 346.60626Q528.51166 347.6375 529.0273 348.1844Q529.5429 348.71564 530.32416 348.71564Q530.9023 348.71564 531.30853 348.41876Q531.7304 348.10626 531.9648 347.45ZM528.51166 345.7469L531.9804 345.7469Q531.9179 344.95 531.5898 344.5594Q531.07416 343.95 530.2773 343.95Q529.5429 343.95 529.0429 344.4344Q528.55853 344.91876 528.51166 345.7469Z" fill-rule="nonzero"/><path fill="#4285f4" d="M217.0 56.916668C217.0 56.364384 217.44771 55.916668 218.0 55.916668L228.0 55.916668C228.55229 55.916668 229.0 56.364384 229.0 56.916668L229.0 66.916664C229.0 67.46895 228.55229 67.916664 228.0 67.916664L218.0 67.916664C217.44771 67.916664 217.0 67.46895 217.0 66.916664Z" fill-rule="nonzero"/><path fill="#1a1a1a" d="M237.875 65.916664L237.875 57.322914L239.01562 57.322914L239.01562 64.90104L243.25 64.90104L243.25 65.916664L237.875 65.916664ZM244.89062 65.916664L244.89062 57.322914L246.60938 57.322914L248.64062 63.40104Q248.92188 64.260414 249.04688 64.68229Q249.1875 64.21354 249.5 63.30729L251.5625 57.322914L253.09375 57.322914L253.09375 65.916664L252.0 65.916664L252.0 58.729164L249.5 65.916664L248.46875 65.916664L245.98438 58.604164L245.98438 65.916664L244.89062 65.916664ZM260.4375 64.99479Q261.23438 65.541664 261.89062 65.791664L261.5625 66.58854Q260.64062 66.24479 259.71875 65.52604Q258.76562 66.05729 257.60938 66.05729Q256.4375 66.05729 255.48438 65.49479Q254.54688 64.93229 254.03125 63.916664Q253.51562 62.90104 253.51562 61.61979Q253.51562 60.354164 254.03125 59.30729Q254.54688 58.260414 255.5 57.71354Q256.45312 57.166664 257.625 57.166664Q258.8125 57.166664 259.76562 57.74479Q260.73438 58.30729 261.23438 59.322914Q261.73438 60.33854 261.73438 61.61979Q261.73438 62.68229 261.40625 63.52604Q261.09375 64.36979 260.4375 64.99479ZM257.9375 63.541664Q258.92188 63.822914 259.5625 64.36979Q260.5625 63.447914 260.5625 61.61979Q260.5625 60.572914 260.20312 59.791664Q259.84375 59.010414 259.15625 58.58854Q258.48438 58.15104 257.64062 58.15104Q256.35938 58.15104 255.51562 59.02604Q254.6875 59.885414 254.6875 61.61979Q254.6875 63.291664 255.51562 64.197914Q256.34375 65.08854 257.64062 65.08854Q258.25 65.08854 258.78125 64.854164Q258.25 64.510414 257.65625 64.36979L257.9375 63.541664ZM262.875 65.916664L262.875 57.322914L264.01562 57.322914L264.01562 64.90104L268.25 64.90104L268.25 65.916664L262.875 65.916664Z" fill-rule="nonzero"/><path fill="#ea4335" d="M285.0 56.916668C285.0 56.364384 285.44772 55.916668 286.0 55.916668L296.0 55.916668C296.55228 55.916668 297.0 56.364384 297.0 56.916668L297.0 66.916664C297.0 67.46895 296.55228 67.916664 296.0 67.916664L286.0 67.916664C285.44772 67.916664 285.0 67.46895 285.0 66.916664Z" fill-rule="nonzero"/><path fill="#1a1a1a" d="M305.92188 65.916664L305.92188 57.322914L308.89062 57.322914Q309.89062 57.322914 310.42188 57.447914Q311.15625 57.61979 311.67188 58.05729Q312.35938 58.635414 312.6875 59.541664Q313.03125 60.43229 313.03125 61.572914Q313.03125 62.55729 312.79688 63.30729Q312.57812 64.05729 312.21875 64.55729Q311.85938 65.05729 311.42188 65.33854Q311.0 65.61979 310.40625 65.77604Q309.8125 65.916664 309.03125 65.916664L305.92188 65.916664ZM307.0625 64.90104L308.89062 64.90104Q309.75 64.90104 310.23438 64.74479Q310.71875 64.58854 311.0 64.291664Q311.40625 63.90104 311.625 63.21354Q311.85938 62.52604 311.85938 61.55729Q311.85938 60.21354 311.40625 59.49479Q310.96875 58.760414 310.34375 58.510414Q309.875 58.33854 308.875 58.33854L307.0625 58.33854L307.0625 64.90104ZM314.79688 58.541664L314.79688 57.322914L315.85938 57.322914L315.85938 58.541664L314.79688 58.541664ZM314.79688 65.916664L314.79688 59.697914L315.85938 59.697914L315.85938 65.916664L314.79688 65.916664ZM317.78125 65.916664L317.78125 59.697914L318.73438 59.697914L318.73438 60.635414Q319.09375 59.979164 319.39062 59.77604Q319.70312 59.55729 320.07812 59.55729Q320.60938 59.55729 321.15625 59.885414L320.79688 60.86979Q320.40625 60.635414 320.03125 60.635414Q319.67188 60.635414 319.39062 60.854164Q319.125 61.05729 319.01562 61.43229Q318.82812 61.99479 318.82812 62.65104L318.82812 65.916664L317.78125 65.916664ZM326.04688 63.916664L327.14062 64.041664Q326.89062 64.99479 326.1875 65.52604Q325.48438 66.05729 324.40625 66.05729Q323.04688 66.05729 322.23438 65.21354Q321.4375 64.36979 321.4375 62.854164Q321.4375 61.291664 322.25 60.43229Q323.0625 59.55729 324.34375 59.55729Q325.59375 59.55729 326.375 60.40104Q327.17188 61.24479 327.17188 62.791664Q327.17188 62.885414 327.17188 63.072914L322.53125 63.072914Q322.59375 64.104164 323.10938 64.65104Q323.625 65.18229 324.40625 65.18229Q324.98438 65.18229 325.39062 64.885414Q325.8125 64.572914 326.04688 63.916664ZM322.59375 62.21354L326.0625 62.21354Q326.0 61.416664 325.67188 61.02604Q325.15625 60.416664 324.35938 60.416664Q323.625 60.416664 323.125 60.90104Q322.64062 61.385414 322.59375 62.21354ZM332.85938 63.635414L333.89062 63.77604Q333.71875 64.83854 333.01562 65.447914Q332.3125 66.05729 331.29688 66.05729Q330.01562 66.05729 329.23438 65.229164Q328.46875 64.385414 328.46875 62.822914Q328.46875 61.822914 328.79688 61.072914Q329.14062 60.30729 329.8125 59.93229Q330.5 59.55729 331.3125 59.55729Q332.3125 59.55729 332.95312 60.072914Q333.60938 60.572914 333.79688 61.52604L332.76562 61.68229Q332.625 61.05729 332.25 60.74479Q331.875 60.416664 331.34375 60.416664Q330.54688 60.416664 330.04688 60.99479Q329.54688 61.55729 329.54688 62.791664Q329.54688 64.05729 330.03125 64.61979Q330.51562 65.18229 331.28125 65.18229Q331.90625 65.18229 332.3125 64.80729Q332.73438 64.43229 332.85938 63.635414ZM337.09375 64.979164L337.25 65.90104Q336.79688 65.99479 336.45312 65.99479Q335.875 65.99479 335.5625 65.822914Q335.25 65.635414 335.10938 65.33854Q334.98438 65.041664 334.98438 64.08854L334.98438 60.510414L334.21875 60.510414L334.21875 59.697914L334.98438 59.697914L334.98438 58.15104L336.03125 57.52604L336.03125 59.697914L337.09375 59.697914L337.09375 60.510414L336.03125 60.510414L336.03125 64.15104Q336.03125 64.604164 336.07812 64.729164Q336.14062 64.854164 336.26562 64.93229Q336.39062 65.010414 336.625 65.010414Q336.8125 65.010414 337.09375 64.979164ZM339.98438 65.916664L343.28125 57.322914L344.5 57.322914L348.01562 65.916664L346.73438 65.916664L345.71875 63.30729L342.14062 63.30729L341.1875 65.916664L339.98438 65.916664ZM342.46875 62.385414L345.375 62.385414L344.48438 60.010414Q344.0625 58.93229 343.875 58.229164Q343.70312 59.05729 343.40625 59.86979L342.46875 62.385414ZM347.92188 65.916664L347.92188 57.322914L351.17188 57.322914Q352.01562 57.322914 352.46875 57.40104Q353.10938 57.510414 353.53125 57.80729Q353.96875 58.104164 354.21875 58.635414Q354.48438 59.166664 354.48438 59.80729Q354.48438 60.90104 353.78125 61.666664Q353.09375 62.416664 351.26562 62.416664L349.0625 62.416664L349.0625 65.916664L347.92188 65.916664ZM349.0625 61.416664L351.28125 61.416664Q352.39062 61.416664 352.84375 61.010414Q353.3125 60.58854 353.3125 59.83854Q353.3125 59.30729 353.03125 58.93229Q352.76562 58.541664 352.32812 58.416664Q352.03125 58.33854 351.26562 58.33854L349.0625 58.33854L349.0625 61.416664ZM356.125 65.916664L356.125 57.322914L357.25 57.322914L357.25 65.916664L356.125 65.916664ZM368.0625 62.90104L369.1875 63.197914Q368.82812 64.58854 367.90625 65.322914Q366.98438 66.05729 365.64062 66.05729Q364.25 66.05729 363.375 65.49479Q362.5 64.93229 362.04688 63.86979Q361.59375 62.791664 361.59375 61.55729Q361.59375 60.21354 362.10938 59.21354Q362.625 58.21354 363.5625 57.697914Q364.51562 57.18229 365.65625 57.18229Q366.9375 57.18229 367.8125 57.83854Q368.70312 58.49479 369.04688 59.68229L367.92188 59.947914Q367.625 59.010414 367.04688 58.58854Q366.48438 58.15104 365.625 58.15104Q364.64062 58.15104 363.96875 58.635414Q363.3125 59.104164 363.03125 59.90104Q362.76562 60.697914 362.76562 61.55729Q362.76562 62.65104 363.07812 63.46354Q363.40625 64.27604 364.07812 64.68229Q364.75 65.08854 365.54688 65.08854Q366.5 65.08854 367.15625 64.541664Q367.82812 63.99479 368.0625 62.90104ZM374.85938 65.15104Q374.26562 65.65104 373.71875 65.854164Q373.1875 66.05729 372.5625 66.05729Q371.53125 66.05729 370.98438 65.55729Q370.4375 65.05729 370.4375 64.27604Q370.4375 63.822914 370.64062 63.447914Q370.84375 63.05729 371.1875 62.83854Q371.53125 62.604164 371.95312 62.49479Q372.25 62.40104 372.89062 62.322914Q374.15625 62.18229 374.76562 61.96354Q374.76562 61.74479 374.76562 61.697914Q374.76562 61.041664 374.46875 60.77604Q374.0625 60.43229 373.26562 60.43229Q372.53125 60.43229 372.17188 60.697914Q371.8125 60.947914 371.64062 61.604164L370.60938 61.46354Q370.75 60.80729 371.07812 60.40104Q371.40625 59.99479 372.01562 59.77604Q372.625 59.55729 373.42188 59.55729Q374.21875 59.55729 374.71875 59.74479Q375.21875 59.93229 375.45312 60.21354Q375.6875 60.49479 375.78125 60.93229Q375.82812 61.197914 375.82812 61.90104L375.82812 63.30729Q375.82812 64.77604 375.89062 65.166664Q375.96875 65.55729 376.17188 65.916664L375.0625 65.916664Q374.90625 65.58854 374.85938 65.15104ZM374.76562 62.791664Q374.1875 63.02604 373.04688 63.197914Q372.39062 63.291664 372.125 63.416664Q371.85938 63.52604 371.70312 63.74479Q371.5625 63.96354 371.5625 64.24479Q371.5625 64.666664 371.875 64.947914Q372.20312 65.229164 372.8125 65.229164Q373.42188 65.229164 373.89062 64.96354Q374.375 64.697914 374.59375 64.229164Q374.76562 63.86979 374.76562 63.18229L374.76562 62.791664ZM377.76562 65.916664L377.76562 57.322914L378.82812 57.322914L378.82812 65.916664L377.76562 65.916664ZM380.76562 65.916664L380.76562 57.322914L381.82812 57.322914L381.82812 65.916664L380.76562 65.916664Z" fill-rule="nonzero"/><path fill="#000000" d="M107.96875 37.55L107.96875 23.2375L109.859375 23.2375L109.859375 35.8625L116.90625 35.8625L116.90625 37.55L107.96875 37.55ZM118.984375 37.55L118.984375 23.2375L121.84375 23.2375L125.21875 33.3625Q125.6875 34.784374 125.90625 35.4875Q126.15625 34.70625 126.671875 33.190624L130.09375 23.2375L132.64062 23.2375L132.64062 37.55L130.82812 37.55L130.82812 25.565624L126.65625 37.55L124.953125 37.55L120.8125 25.3625L120.8125 37.55L118.984375 37.55ZM146.89062 36.01875Q148.21875 36.925 149.32812 37.346874L148.76562 38.659374Q147.21875 38.1125 145.6875 36.909374Q144.09375 37.8 142.17188 37.8Q140.23438 37.8 138.64062 36.8625Q137.0625 35.925 136.20312 34.221874Q135.35938 32.51875 135.35938 30.39375Q135.35938 28.26875 136.21875 26.534374Q137.07812 24.8 138.65625 23.89375Q140.25 22.971874 142.21875 22.971874Q144.20312 22.971874 145.78125 23.925Q147.375 24.8625 148.20312 26.565624Q149.04688 28.253124 149.04688 30.378124Q149.04688 32.14375 148.51562 33.565624Q147.98438 34.971874 146.89062 36.01875ZM142.71875 33.596874Q144.35938 34.05 145.42188 34.95625Q147.09375 33.440624 147.09375 30.378124Q147.09375 28.64375 146.5 27.346874Q145.92188 26.05 144.78125 25.33125Q143.64062 24.6125 142.21875 24.6125Q140.10938 24.6125 138.70312 26.065624Q137.3125 27.503124 137.3125 30.39375Q137.3125 33.190624 138.6875 34.690624Q140.07812 36.175 142.21875 36.175Q143.23438 36.175 144.14062 35.784374Q143.25 35.221874 142.26562 34.971874L142.71875 33.596874ZM151.96875 37.55L151.96875 23.2375L153.85938 23.2375L153.85938 35.8625L160.90625 35.8625L160.90625 37.55L151.96875 37.55ZM171.70312 37.55L167.75 27.175L169.60938 27.175L171.84375 33.39375Q172.20312 34.39375 172.5 35.471874Q172.73438 34.659374 173.15625 33.503124L175.45312 27.175L177.26562 27.175L173.34375 37.55L171.70312 37.55ZM177.10938 34.45625L178.85938 34.175Q179.0 35.221874 179.67188 35.784374Q180.34375 36.33125 181.54688 36.33125Q182.75 36.33125 183.32812 35.846874Q183.92188 35.346874 183.92188 34.690624Q183.92188 34.096874 183.40625 33.753124Q183.04688 33.51875 181.60938 33.159374Q179.67188 32.659374 178.92188 32.315624Q178.1875 31.95625 177.79688 31.33125Q177.40625 30.690624 177.40625 29.925Q177.40625 29.2375 177.71875 28.64375Q178.04688 28.05 178.59375 27.659374Q179.0 27.3625 179.70312 27.159374Q180.42188 26.940624 181.23438 26.940624Q182.45312 26.940624 183.375 27.3Q184.29688 27.64375 184.73438 28.253124Q185.17188 28.846874 185.34375 29.846874L183.625 30.08125Q183.5 29.284374 182.9375 28.846874Q182.375 28.39375 181.35938 28.39375Q180.14062 28.39375 179.625 28.8Q179.10938 29.190624 179.10938 29.721874Q179.10938 30.065624 179.32812 30.346874Q179.53125 30.628124 180.0 30.815624Q180.26562 30.909374 181.54688 31.253124Q183.42188 31.753124 184.15625 32.08125Q184.89062 32.39375 185.3125 33.003124Q185.73438 33.596874 185.73438 34.503124Q185.73438 35.378124 185.21875 36.159374Q184.70312 36.940624 183.73438 37.3625Q182.76562 37.784374 181.54688 37.784374Q179.53125 37.784374 178.46875 36.940624Q177.40625 36.096874 177.10938 34.45625ZM188.3125 37.55L188.3125 35.55L190.3125 35.55L190.3125 37.55L188.3125 37.55ZM200.04688 37.55L200.04688 23.2375L204.96875 23.2375Q206.64062 23.2375 207.53125 23.440624Q208.75 23.721874 209.625 24.45625Q210.75 25.425 211.3125 26.909374Q211.875 28.39375 211.875 30.315624Q211.875 31.940624 211.5 33.20625Q211.125 34.45625 210.51562 35.284374Q209.92188 36.1125 209.21875 36.596874Q208.51562 37.065624 207.51562 37.315624Q206.51562 37.55 205.20312 37.55L200.04688 37.55ZM201.9375 35.8625L205.0 35.8625Q206.40625 35.8625 207.20312 35.596874Q208.01562 35.33125 208.5 34.846874Q209.17188 34.175 209.54688 33.05Q209.92188 31.909374 209.92188 30.284374Q209.92188 28.034374 209.1875 26.83125Q208.45312 25.628124 207.39062 25.221874Q206.64062 24.925 204.95312 24.925L201.9375 24.925L201.9375 35.8625ZM213.82812 25.253124L213.82812 23.2375L215.59375 23.2375L215.59375 25.253124L213.82812 25.253124ZM213.82812 37.55L213.82812 27.175L215.59375 27.175L215.59375 37.55L213.82812 37.55ZM217.79688 37.55L217.79688 27.175L219.375 27.175L219.375 28.753124Q219.98438 27.64375 220.5 27.3Q221.01562 26.940624 221.625 26.940624Q222.51562 26.940624 223.4375 27.503124L222.82812 29.14375Q222.1875 28.753124 221.54688 28.753124Q220.96875 28.753124 220.5 29.1125Q220.04688 29.45625 219.84375 30.065624Q219.5625 31.003124 219.5625 32.1125L219.5625 37.55L217.79688 37.55ZM231.92188 34.20625L233.73438 34.440624Q233.3125 36.01875 232.14062 36.909374Q230.98438 37.784374 229.17188 37.784374Q226.90625 37.784374 225.5625 36.39375Q224.23438 34.9875 224.23438 32.45625Q224.23438 29.83125 225.57812 28.39375Q226.92188 26.940624 229.07812 26.940624Q231.15625 26.940624 232.46875 28.3625Q233.79688 29.76875 233.79688 32.346874Q233.79688 32.503124 233.78125 32.815624L226.04688 32.815624Q226.14062 34.51875 227.01562 35.425Q227.89062 36.33125 229.1875 36.33125Q230.15625 36.33125 230.82812 35.83125Q231.51562 35.315624 231.92188 34.20625ZM226.14062 31.3625L231.9375 31.3625Q231.82812 30.065624 231.28125 29.409374Q230.4375 28.39375 229.09375 28.39375Q227.89062 28.39375 227.0625 29.20625Q226.23438 30.003124 226.14062 31.3625ZM242.59375 33.753124L244.3125 33.971874Q244.03125 35.76875 242.85938 36.784374Q241.70312 37.784374 240.0 37.784374Q237.875 37.784374 236.57812 36.39375Q235.28125 35.003124 235.28125 32.409374Q235.28125 30.721874 235.82812 29.471874Q236.39062 28.20625 237.53125 27.58125Q238.67188 26.940624 240.01562 26.940624Q241.70312 26.940624 242.76562 27.8Q243.84375 28.659374 244.15625 30.221874L242.4375 30.4875Q242.20312 29.440624 241.57812 28.925Q240.95312 28.39375 240.07812 28.39375Q238.75 28.39375 237.92188 29.346874Q237.09375 30.3 237.09375 32.346874Q237.09375 34.440624 237.89062 35.39375Q238.6875 36.33125 239.98438 36.33125Q241.01562 36.33125 241.70312 35.70625Q242.40625 35.065624 242.59375 33.753124ZM249.65625 35.971874L249.90625 37.534374Q249.17188 37.690624 248.57812 37.690624Q247.625 37.690624 247.09375 37.39375Q246.57812 37.08125 246.35938 36.596874Q246.14062 36.096874 246.14062 34.51875L246.14062 28.55L244.85938 28.55L244.85938 27.175L246.14062 27.175L246.14062 24.6125L247.89062 23.55L247.89062 27.175L249.65625 27.175L249.65625 28.55L247.89062 28.55L247.89062 34.6125Q247.89062 35.3625 247.98438 35.58125Q248.07812 35.784374 248.28125 35.925Q248.5 36.05 248.89062 36.05Q249.17188 36.05 249.65625 35.971874ZM256.46875 37.55L261.96875 23.2375L264.01562 23.2375L269.875 37.55L267.71875 37.55L266.04688 33.20625L260.0625 33.20625L258.48438 37.55L256.46875 37.55ZM260.60938 31.675L265.45312 31.675L263.96875 27.70625Q263.28125 25.89375 262.95312 24.7375Q262.67188 26.1125 262.17188 27.471874L260.60938 31.675ZM271.04688 37.55L271.04688 23.2375L276.4375 23.2375Q277.875 23.2375 278.625 23.3625Q279.67188 23.55 280.39062 24.05Q281.10938 24.534374 281.53125 25.425Q281.96875 26.315624 281.96875 27.378124Q281.96875 29.20625 280.79688 30.471874Q279.64062 31.721874 276.60938 31.721874L272.9375 31.721874L272.9375 37.55L271.04688 37.55ZM272.9375 30.034374L276.64062 30.034374Q278.46875 30.034374 279.23438 29.3625Q280.01562 28.675 280.01562 27.425Q280.01562 26.534374 279.5625 25.89375Q279.10938 25.253124 278.375 25.05Q277.89062 24.925 276.59375 24.925L272.9375 24.925L272.9375 30.034374ZM284.35938 37.55L284.35938 23.2375L286.26562 23.2375L286.26562 37.55L284.35938 37.55ZM306.26562 32.534374L308.15625 33.003124Q307.5625 35.346874 306.01562 36.58125Q304.46875 37.8 302.21875 37.8Q299.90625 37.8 298.45312 36.8625Q297.01562 35.909374 296.25 34.128124Q295.5 32.33125 295.5 30.284374Q295.5 28.05 296.34375 26.39375Q297.20312 24.721874 298.78125 23.8625Q300.35938 22.9875 302.25 22.9875Q304.40625 22.9875 305.85938 24.08125Q307.32812 25.175 307.90625 27.159374L306.04688 27.596874Q305.54688 26.034374 304.59375 25.33125Q303.65625 24.6125 302.21875 24.6125Q300.5625 24.6125 299.45312 25.409374Q298.34375 26.190624 297.89062 27.534374Q297.45312 28.8625 297.45312 30.26875Q297.45312 32.096874 297.98438 33.471874Q298.51562 34.83125 299.64062 35.503124Q300.76562 36.175 302.0625 36.175Q303.65625 36.175 304.76562 35.253124Q305.875 34.33125 306.26562 32.534374ZM316.59375 36.26875Q315.60938 37.096874 314.70312 37.440624Q313.79688 37.784374 312.76562 37.784374Q311.0625 37.784374 310.14062 36.95625Q309.21875 36.1125 309.21875 34.815624Q309.21875 34.05 309.5625 33.425Q309.92188 32.8 310.48438 32.425Q311.04688 32.034374 311.75 31.83125Q312.26562 31.70625 313.3125 31.565624Q315.4375 31.315624 316.4375 30.971874Q316.45312 30.6125 316.45312 30.503124Q316.45312 29.440624 315.95312 28.9875Q315.28125 28.39375 313.95312 28.39375Q312.70312 28.39375 312.10938 28.83125Q311.53125 29.26875 311.25 30.378124L309.53125 30.14375Q309.76562 29.034374 310.29688 28.3625Q310.82812 27.675 311.84375 27.315624Q312.85938 26.940624 314.20312 26.940624Q315.53125 26.940624 316.35938 27.253124Q317.1875 27.565624 317.57812 28.05Q317.96875 28.51875 318.125 29.2375Q318.21875 29.690624 318.21875 30.8625L318.21875 33.20625Q318.21875 35.659374 318.32812 36.315624Q318.4375 36.95625 318.78125 37.55L316.9375 37.55Q316.67188 37.003124 316.59375 36.26875ZM316.4375 32.346874Q315.48438 32.7375 313.5625 33.003124Q312.48438 33.159374 312.03125 33.3625Q311.59375 33.55 311.34375 33.925Q311.09375 34.3 311.09375 34.76875Q311.09375 35.471874 311.625 35.940624Q312.15625 36.409374 313.1875 36.409374Q314.20312 36.409374 314.98438 35.971874Q315.78125 35.51875 316.15625 34.753124Q316.4375 34.14375 316.4375 32.9875L316.4375 32.346874ZM320.78125 37.55L320.78125 23.2375L322.53125 23.2375L322.53125 37.55L320.78125 37.55ZM324.78125 37.55L324.78125 23.2375L326.53125 23.2375L326.53125 37.55L324.78125 37.55ZM335.07812 37.55L335.07812 23.2375L341.42188 23.2375Q343.32812 23.2375 344.32812 23.628124Q345.32812 24.003124 345.92188 24.9875Q346.51562 25.95625 346.51562 27.14375Q346.51562 28.659374 345.53125 29.70625Q344.54688 30.753124 342.48438 31.034374Q343.23438 31.39375 343.625 31.753124Q344.45312 32.503124 345.20312 33.659374L347.6875 37.55L345.3125 37.55L343.40625 34.565624Q342.57812 33.284374 342.04688 32.596874Q341.51562 31.909374 341.07812 31.64375Q340.65625 31.3625 340.21875 31.253124Q339.89062 31.190624 339.17188 31.190624L336.96875 31.190624L336.96875 37.55L335.07812 37.55ZM336.96875 29.55L341.04688 29.55Q342.34375 29.55 343.0625 29.284374Q343.79688 29.01875 344.17188 28.425Q344.5625 27.83125 344.5625 27.14375Q344.5625 26.128124 343.82812 25.471874Q343.09375 24.815624 341.5 24.815624L336.96875 24.815624L336.96875 29.55ZM355.60938 37.55L355.60938 36.01875Q354.40625 37.784374 352.32812 37.784374Q351.40625 37.784374 350.60938 37.440624Q349.8125 37.08125 349.42188 36.55Q349.04688 36.01875 348.89062 35.2375Q348.78125 34.721874 348.78125 33.596874L348.78125 27.175L350.53125 27.175L350.53125 32.925Q350.53125 34.3 350.64062 34.784374Q350.8125 35.471874 351.34375 35.878124Q351.89062 36.26875 352.67188 36.26875Q353.46875 36.26875 354.15625 35.8625Q354.85938 35.45625 355.14062 34.76875Q355.4375 34.065624 355.4375 32.7375L355.4375 27.175L357.1875 27.175L357.1875 37.55L355.60938 37.55ZM358.8125 37.55L358.8125 27.175L360.40625 27.175L360.40625 28.659374Q361.54688 26.940624 363.70312 26.940624Q364.64062 26.940624 365.42188 27.284374Q366.21875 27.6125 366.60938 28.159374Q367.0 28.70625 367.15625 29.45625Q367.25 29.95625 367.25 31.175L367.25 37.55L365.48438 37.55L365.48438 31.2375Q365.48438 30.159374 365.28125 29.628124Q365.07812 29.096874 364.54688 28.784374Q364.03125 28.471874 363.32812 28.471874Q362.20312 28.471874 361.39062 29.190624Q360.57812 29.89375 360.57812 31.878124L360.57812 37.55L358.8125 37.55ZM372.65625 35.971874L372.90625 37.534374Q372.17188 37.690624 371.57812 37.690624Q370.625 37.690624 370.09375 37.39375Q369.57812 37.08125 369.35938 36.596874Q369.14062 36.096874 369.14062 34.51875L369.14062 28.55L367.85938 28.55L367.85938 27.175L369.14062 27.175L369.14062 24.6125L370.89062 23.55L370.89062 27.175L372.65625 27.175L372.65625 28.55L370.89062 28.55L370.89062 34.6125Q370.89062 35.3625 370.98438 35.58125Q371.07812 35.784374 371.28125 35.925Q371.5 36.05 371.89062 36.05Q372.17188 36.05 372.65625 35.971874ZM374.82812 25.253124L374.82812 23.2375L376.59375 23.2375L376.59375 25.253124L374.82812 25.253124ZM374.82812 37.55L374.82812 27.175L376.59375 27.175L376.59375 37.55L374.82812 37.55ZM378.8125 37.55L378.8125 27.175L380.39062 27.175L380.39062 28.628124Q380.875 27.878124 381.6875 27.409374Q382.5 26.940624 383.53125 26.940624Q384.6875 26.940624 385.42188 27.425Q386.15625 27.89375 386.46875 28.753124Q387.70312 26.940624 389.67188 26.940624Q391.21875 26.940624 392.04688 27.8Q392.875 28.659374 392.875 30.425L392.875 37.55L391.125 37.55L391.125 31.01875Q391.125 29.95625 390.95312 29.503124Q390.78125 29.034374 390.32812 28.753124Q389.89062 28.471874 389.28125 28.471874Q388.1875 28.471874 387.45312 29.20625Q386.73438 29.925 386.73438 31.51875L386.73438 37.55L384.98438 37.55L384.98438 30.815624Q384.98438 29.64375 384.54688 29.065624Q384.125 28.471874 383.14062 28.471874Q382.40625 28.471874 381.76562 28.8625Q381.14062 29.253124 380.85938 30.003124Q380.57812 30.753124 380.57812 32.175L380.57812 37.55L378.8125 37.55ZM401.92188 34.20625L403.73438 34.440624Q403.3125 36.01875 402.14062 36.909374Q400.98438 37.784374 399.17188 37.784374Q396.90625 37.784374 395.5625 36.39375Q394.23438 34.9875 394.23438 32.45625Q394.23438 29.83125 395.57812 28.39375Q396.92188 26.940624 399.07812 26.940624Q401.15625 26.940624 402.46875 28.3625Q403.79688 29.76875 403.79688 32.346874Q403.79688 32.503124 403.78125 32.815624L396.04688 32.815624Q396.14062 34.51875 397.01562 35.425Q397.89062 36.33125 399.1875 36.33125Q400.15625 36.33125 400.82812 35.83125Q401.51562 35.315624 401.92188 34.20625ZM396.14062 31.3625L401.9375 31.3625Q401.82812 30.065624 401.28125 29.409374Q400.4375 28.39375 399.09375 28.39375Q397.89062 28.39375 397.0625 29.20625Q396.23438 30.003124 396.14062 31.3625ZM410.46875 37.55L415.96875 23.2375L418.01562 23.2375L423.875 37.55L421.71875 37.55L420.04688 33.20625L414.0625 33.20625L412.48438 37.55L410.46875 37.55ZM414.60938 31.675L419.45312 31.675L417.96875 27.70625Q417.28125 25.89375 416.95312 24.7375Q416.67188 26.1125 416.17188 27.471874L414.60938 31.675ZM427.70312 37.55L423.75 27.175L425.60938 27.175L427.84375 33.39375Q428.20312 34.39375 428.5 35.471874Q428.73438 34.659374 429.15625 33.503124L431.45312 27.175L433.26562 27.175L429.34375 37.55L427.70312 37.55ZM440.92188 34.20625L442.73438 34.440624Q442.3125 36.01875 441.14062 36.909374Q439.98438 37.784374 438.17188 37.784374Q435.90625 37.784374 434.5625 36.39375Q433.23438 34.9875 433.23438 32.45625Q433.23438 29.83125 434.57812 28.39375Q435.92188 26.940624 438.07812 26.940624Q440.15625 26.940624 441.46875 28.3625Q442.79688 29.76875 442.79688 32.346874Q442.79688 32.503124 442.78125 32.815624L435.04688 32.815624Q435.14062 34.51875 436.01562 35.425Q436.89062 36.33125 438.1875 36.33125Q439.15625 36.33125 439.82812 35.83125Q440.51562 35.315624 440.92188 34.20625ZM435.14062 31.3625L440.9375 31.3625Q440.82812 30.065624 440.28125 29.409374Q439.4375 28.39375 438.09375 28.39375Q436.89062 28.39375 436.0625 29.20625Q435.23438 30.003124 435.14062 31.3625ZM444.79688 37.55L444.79688 27.175L446.375 27.175L446.375 28.753124Q446.98438 27.64375 447.5 27.3Q448.01562 26.940624 448.625 26.940624Q449.51562 26.940624 450.4375 27.503124L449.82812 29.14375Q449.1875 28.753124 448.54688 28.753124Q447.96875 28.753124 447.5 29.1125Q447.04688 29.45625 446.84375 30.065624Q446.5625 31.003124 446.5625 32.1125L446.5625 37.55L444.79688 37.55ZM458.59375 36.26875Q457.60938 37.096874 456.70312 37.440624Q455.79688 37.784374 454.76562 37.784374Q453.0625 37.784374 452.14062 36.95625Q451.21875 36.1125 451.21875 34.815624Q451.21875 34.05 451.5625 33.425Q451.92188 32.8 452.48438 32.425Q453.04688 32.034374 453.75 31.83125Q454.26562 31.70625 455.3125 31.565624Q457.4375 31.315624 458.4375 30.971874Q458.45312 30.6125 458.45312 30.503124Q458.45312 29.440624 457.95312 28.9875Q457.28125 28.39375 455.95312 28.39375Q454.70312 28.39375 454.10938 28.83125Q453.53125 29.26875 453.25 30.378124L451.53125 30.14375Q451.76562 29.034374 452.29688 28.3625Q452.82812 27.675 453.84375 27.315624Q454.85938 26.940624 456.20312 26.940624Q457.53125 26.940624 458.35938 27.253124Q459.1875 27.565624 459.57812 28.05Q459.96875 28.51875 460.125 29.2375Q460.21875 29.690624 460.21875 30.8625L460.21875 33.20625Q460.21875 35.659374 460.32812 36.315624Q460.4375 36.95625 460.78125 37.55L458.9375 37.55Q458.67188 37.003124 458.59375 36.26875ZM458.4375 32.346874Q457.48438 32.7375 455.5625 33.003124Q454.48438 33.159374 454.03125 33.3625Q453.59375 33.55 453.34375 33.925Q453.09375 34.3 453.09375 34.76875Q453.09375 35.471874 453.625 35.940624Q454.15625 36.409374 455.1875 36.409374Q456.20312 36.409374 456.98438 35.971874Q457.78125 35.51875 458.15625 34.753124Q458.4375 34.14375 458.4375 32.9875L458.4375 32.346874ZM462.5 38.409374L464.20312 38.659374Q464.3125 39.45625 464.79688 39.815624Q465.45312 40.3 466.59375 40.3Q467.8125 40.3 468.46875 39.815624Q469.14062 39.33125 469.375 38.45625Q469.51562 37.909374 469.5 36.190624Q468.34375 37.55 466.625 37.55Q464.48438 37.55 463.3125 36.003124Q462.14062 34.45625 462.14062 32.3Q462.14062 30.815624 462.67188 29.565624Q463.21875 28.315624 464.23438 27.628124Q465.26562 26.940624 466.64062 26.940624Q468.46875 26.940624 469.67188 28.425L469.67188 27.175L471.28125 27.175L471.28125 36.14375Q471.28125 38.565624 470.78125 39.565624Q470.29688 40.58125 469.21875 41.159374Q468.15625 41.753124 466.59375 41.753124Q464.75 41.753124 463.59375 40.925Q462.45312 40.096874 462.5 38.409374ZM463.95312 32.175Q463.95312 34.221874 464.76562 35.159374Q465.57812 36.096874 466.79688 36.096874Q468.0 36.096874 468.8125 35.159374Q469.64062 34.221874 469.64062 32.2375Q469.64062 30.33125 468.79688 29.3625Q467.95312 28.39375 466.76562 28.39375Q465.59375 28.39375 464.76562 29.346874Q463.95312 30.3 463.95312 32.175ZM480.92188 34.20625L482.73438 34.440624Q482.3125 36.01875 481.14062 36.909374Q479.98438 37.784374 478.17188 37.784374Q475.90625 37.784374 474.5625 36.39375Q473.23438 34.9875 473.23438 32.45625Q473.23438 29.83125 474.57812 28.39375Q475.92188 26.940624 478.07812 26.940624Q480.15625 26.940624 481.46875 28.3625Q482.79688 29.76875 482.79688 32.346874Q482.79688 32.503124 482.78125 32.815624L475.04688 32.815624Q475.14062 34.51875 476.01562 35.425Q476.89062 36.33125 478.1875 36.33125Q479.15625 36.33125 479.82812 35.83125Q480.51562 35.315624 480.92188 34.20625ZM475.14062 31.3625L480.9375 31.3625Q480.82812 30.065624 480.28125 29.409374Q479.4375 28.39375 478.09375 28.39375Q476.89062 28.39375 476.0625 29.20625Q475.23438 30.003124 475.14062 31.3625ZM484.10938 34.45625L485.85938 34.175Q486.0 35.221874 486.67188 35.784374Q487.34375 36.33125 488.54688 36.33125Q489.75 36.33125 490.32812 35.846874Q490.92188 35.346874 490.92188 34.690624Q490.92188 34.096874 490.40625 33.753124Q490.04688 33.51875 488.60938 33.159374Q486.67188 32.659374 485.92188 32.315624Q485.1875 31.95625 484.79688 31.33125Q484.40625 30.690624 484.40625 29.925Q484.40625 29.2375 484.71875 28.64375Q485.04688 28.05 485.59375 27.659374Q486.0 27.3625 486.70312 27.159374Q487.42188 26.940624 488.23438 26.940624Q489.45312 26.940624 490.375 27.3Q491.29688 27.64375 491.73438 28.253124Q492.17188 28.846874 492.34375 29.846874L490.625 30.08125Q490.5 29.284374 489.9375 28.846874Q489.375 28.39375 488.35938 28.39375Q487.14062 28.39375 486.625 28.8Q486.10938 29.190624 486.10938 29.721874Q486.10938 30.065624 486.32812 30.346874Q486.53125 30.628124 487.0 30.815624Q487.26562 30.909374 488.54688 31.253124Q490.42188 31.753124 491.15625 32.08125Q491.89062 32.39375 492.3125 33.003124Q492.73438 33.596874 492.73438 34.503124Q492.73438 35.378124 492.21875 36.159374Q491.70312 36.940624 490.73438 37.3625Q489.76562 37.784374 488.54688 37.784374Q486.53125 37.784374 485.46875 36.940624Q484.40625 36.096874 484.10938 34.45625Z" fill-rule="nonzero"/></svg>